<svg width="378" height="338" viewBox="0 0 378 338" fill="none" xmlns="http://www.w3.org/2000/svg">
<g opacity="0.1">
<path opacity="0.6" d="M34.3354 98.6083C32.1886 90.1207 14.8373 87.8412 -5.25845 85.2185C-10.2271 84.5656 -15.3616 83.9017 -20.3413 83.1049C-42.3736 79.6302 -62.5357 68.5754 -82.0338 57.8746C-91.805 52.5187 -101.775 47.0522 -111.989 42.5483V43.3893C-101.919 47.8489 -92.0595 53.2491 -82.4101 58.5497C-62.8566 69.2725 -42.6281 80.3717 -20.463 83.8685C-15.4612 84.6542 -10.3266 85.3292 -5.35805 85.9821C13.6311 88.4719 31.5579 90.8179 33.5829 98.7964C35.1543 105.015 27.054 114.455 8.8174 127.645C-16.7781 146.159 -38.246 154.779 -58.7622 154.779C-70.4257 154.779 -81.9785 151.88 -93.1219 146.181C-100.06 142.629 -106.158 138.313 -111.978 133.953V134.916C-106.268 139.176 -100.27 143.381 -93.4649 146.867C-82.2109 152.632 -70.5363 155.554 -58.7511 155.554C-38.0689 155.554 -16.4461 146.889 9.28217 128.276C28.05 114.687 36.0174 105.259 34.3354 98.6083Z" fill="white"/>
<path opacity="0.6" d="M61.4581 67.4473C59.5547 67.4473 56.8657 68.6645 54.8849 74.4409C52.6607 80.9477 56.9432 82.4527 61.4802 84.0572C62.2769 84.3339 63.0958 84.6326 63.8926 84.9536C65.6742 85.6728 67.1791 86.038 68.3521 86.038C69.6579 86.038 70.5985 85.5954 71.1407 84.7322C72.8338 82.0432 70.1227 76.1008 68.8722 73.6774C66.8693 69.7711 64.0918 67.4473 61.4581 67.4473ZM70.687 84.4335C69.8018 85.8388 67.5665 85.8278 64.1028 84.4445C63.295 84.1236 62.465 83.8248 61.6683 83.5482C57.2198 81.9768 53.3689 80.6157 55.4161 74.629C56.8989 70.2912 58.9904 68.0006 61.4581 68.0006C63.8815 68.0006 66.4709 70.2137 68.3853 73.9208C70.8973 78.812 71.7494 82.7404 70.687 84.4335Z" fill="white"/>
<path opacity="0.6" d="M-88.3856 136.908C-79.9756 141.212 -72.827 143.226 -65.8997 143.226C-58.6405 143.226 -52.189 141.046 -44.7195 138.523C-40.4813 137.096 -35.6787 135.469 -30.2342 134.097C-27.4678 133.4 -25.0665 133.322 -23.4951 133.322C-22.4438 133.322 -21.4258 133.367 -20.452 133.4C-19.5224 133.433 -18.6482 133.477 -17.7851 133.477C-13.3034 133.477 -9.72908 132.415 -5.82281 127.137C-3.18913 123.573 -2.19319 120.818 -1.33006 118.395C-0.0242767 114.765 1.00486 111.899 6.73701 107.793C8.20877 106.742 10.3113 105.912 12.3585 105.115C15.634 103.821 18.4669 102.714 18.5886 100.822C18.6882 99.2947 16.9066 97.5906 12.9782 95.4549C8.28623 92.9097 1.58028 92.5666 -4.36211 92.5666C-7.00687 92.5666 -9.79549 92.6441 -12.4845 92.7216C-15.1846 92.799 -17.9843 92.8876 -20.6511 92.8876C-26.6157 92.8876 -30.7875 92.4781 -34.1958 91.5486C-53.4505 86.3144 -71.5101 76.4215 -87.445 67.6794C-95.7777 63.087 -103.889 58.6385 -111.989 54.8208V55.4294C-103.978 59.214 -95.9547 63.6182 -87.6774 68.1552C-71.7204 76.9084 -53.6387 86.8234 -34.3065 92.0687C-30.8539 93.0093 -26.6267 93.4298 -20.618 93.4298C-17.94 93.4298 -15.1403 93.3523 -12.4292 93.2638C-9.74015 93.1863 -6.96261 93.1089 -4.32892 93.1089C1.53603 93.1089 8.15344 93.4409 12.7458 95.9307C16.3533 97.8894 18.146 99.5271 18.0685 100.778C17.9689 102.316 15.1582 103.422 12.1925 104.584C10.1232 105.403 7.98746 106.244 6.46036 107.329C0.584351 111.534 -0.52224 114.621 -1.80589 118.195C-2.66903 120.586 -3.64283 123.297 -6.23225 126.794C-10.0057 131.884 -13.4362 132.913 -17.7519 132.913C-18.604 132.913 -19.4782 132.88 -20.3966 132.836C-21.3815 132.791 -22.3996 132.758 -23.4619 132.758C-25.0665 132.758 -27.512 132.836 -30.3338 133.544C-35.8004 134.916 -40.6141 136.543 -44.8634 137.981C-52.2886 140.493 -58.6958 142.662 -65.8665 142.662C-72.7052 142.662 -79.7764 140.67 -88.109 136.41C-95.7224 132.504 -102.572 127.314 -109.201 122.29C-110.119 121.593 -111.038 120.895 -111.967 120.198V120.895C-111.148 121.504 -110.34 122.124 -109.533 122.732C-102.915 127.778 -96.0433 132.99 -88.3856 136.908Z" fill="white"/>
<path opacity="0.6" d="M84.4086 6.65095C84.9619 4.41563 85.5041 2.21351 86.0131 0.0224609H85.4488C84.9508 2.16925 84.4197 4.3271 83.8774 6.51816C82.8594 10.6236 81.8081 14.8619 80.956 19.1997C78.1231 33.6407 75.6776 52.5745 81.9962 70.9439C84.5635 78.4134 90.9707 84.5108 96.6143 89.8888C101.638 94.6803 105.976 98.819 105.589 102.294C105.412 103.887 104.239 105.315 102.014 106.643C100.985 107.251 99.2369 107.561 96.8024 107.561C88.3038 107.561 73.3205 103.81 62.2325 100.092C50.1706 96.0525 35.3202 89.6121 33.0184 81.8881C32.2881 79.4315 32.8857 76.9417 34.8111 74.5072C37.2788 71.3755 39.9236 68.6312 42.4798 65.9643C47.5148 60.7301 52.2732 55.7836 55.4269 48.4469C59.9197 37.9786 60.4619 27.0565 57.0426 15.9906C56.2126 13.3126 55.3827 10.8449 54.6413 8.66494C53.5568 5.44476 52.6051 2.63402 51.9633 0.0224609H51.3879C52.0408 2.68935 53.0035 5.55542 54.1212 8.842C54.8515 11.022 55.6925 13.4786 56.5114 16.1566C59.8865 27.0897 59.3443 37.879 54.9069 48.2256C51.7973 55.4738 47.0722 60.3871 42.0704 65.577C39.5031 68.2439 36.8473 71.0103 34.3574 74.1641C32.3213 76.7535 31.6795 79.4094 32.4652 82.0541C34.8333 89.9995 49.8608 96.5394 62.0333 100.623C73.1656 104.352 88.2153 108.114 96.7803 108.114C99.3144 108.114 101.162 107.782 102.28 107.118C104.659 105.702 105.921 104.142 106.12 102.36C106.54 98.6087 102.114 94.3816 96.9795 89.4904C91.3801 84.1566 85.0283 78.1036 82.5052 70.7558C76.2309 52.5081 78.6654 33.6629 81.4872 19.2993C82.3393 14.9836 83.3905 10.7453 84.4086 6.65095Z" fill="white"/>
<path opacity="0.6" d="M-7.27224 265.472C-7.82554 266.391 -8.34563 267.254 -8.79934 267.895C-14.3987 275.785 -21.0272 282.779 -28.4856 290.459C-29.4926 291.488 -30.5217 292.539 -31.5619 293.591C-37.7146 299.81 -44.0886 306.239 -47.8952 313.841C-49.367 316.785 -49.8318 319.086 -49.2121 320.492C-48.9354 321.134 -48.4485 321.554 -47.7624 321.742C-47.4858 321.82 -47.1649 321.864 -46.8218 321.864C-45.4607 321.864 -43.6459 321.2 -41.5877 319.961C-37.4933 317.482 -33.6091 314.428 -29.8467 311.462C-26.7704 309.039 -23.5834 306.527 -20.2968 304.358C-7.05092 295.582 1.70222 289.773 5.79661 273.406C6.64869 270.009 7.14665 262.285 4.52403 258.921C3.61662 257.759 2.43257 257.217 0.97187 257.283C-2.43643 257.46 -5.22505 262.086 -7.27224 265.472ZM1.22638 257.615C2.4547 257.615 3.48384 258.124 4.25845 259.131C6.80361 262.396 6.30564 269.987 5.4757 273.329C1.41451 289.574 -7.29437 295.339 -20.4849 304.081C-23.7826 306.261 -26.9696 308.773 -30.057 311.207C-33.8083 314.162 -37.6925 317.216 -41.7647 319.684C-44.2435 321.189 -46.3681 321.809 -47.6739 321.432C-48.2604 321.266 -48.6698 320.901 -48.9133 320.359C-49.4777 319.064 -49.0129 316.807 -47.6075 313.996C-43.823 306.438 -37.4711 300.031 -31.3406 293.823C-30.3004 292.772 -29.2602 291.72 -28.2532 290.691C-20.7837 283 -14.1552 275.996 -8.53376 268.095C-8.06899 267.442 -7.54889 266.579 -6.9956 265.66C-4.99266 262.34 -2.25938 257.803 0.97187 257.637C1.07146 257.615 1.14892 257.615 1.22638 257.615Z" fill="white"/>
<path opacity="0.6" d="M29.2561 9.59383C36.8363 33.2085 39.9237 46.045 21.1006 56.9228C18.0132 58.7044 14.5053 60.0323 10.6765 60.8401C7.43414 61.5262 3.85985 61.8803 0.0753021 61.8803C-34.9151 61.8803 -82.9634 32.6441 -108.791 16.9416L-109.676 16.4104C-110.462 15.9235 -111.237 15.4588 -111.989 14.994V15.6358C-111.325 16.0342 -110.65 16.4436 -109.964 16.8641L-109.079 17.3953C-83.2179 33.1532 -35.0701 62.4336 0.0642471 62.4336C3.89305 62.4336 7.50053 62.0795 10.7871 61.3823C14.6712 60.5524 18.2345 59.2134 21.3661 57.3986C40.5544 46.3106 37.4449 33.3192 29.7762 9.41677C28.8024 6.39578 27.7954 3.24199 26.8659 0.0107422H26.2905C27.2311 3.30839 28.2602 6.5175 29.2561 9.59383Z" fill="white"/>
<path opacity="0.6" d="M18.821 12.9475C21.8862 22.5084 24.8298 34.5039 20.2374 42.4271C17.9689 46.3555 13.9741 48.9449 8.39688 50.1289C5.89598 50.6601 3.0963 50.9257 0.0753021 50.9257C-31.8499 50.9257 -78.1939 22.7297 -103.103 7.58048L-107.696 4.79187C-109.101 3.9398 -110.54 3.14305 -111.989 2.39057V2.76681C-110.595 3.48609 -109.223 4.24964 -107.862 5.06852L-103.269 7.85713C-78.3489 23.0285 -31.9384 51.2577 0.0753021 51.2577C3.11843 51.2577 5.95131 50.981 8.46327 50.4499C14.1401 49.2437 18.2013 46.5989 20.5251 42.582C25.1839 34.5481 22.2293 22.4641 19.1419 12.8368C17.814 8.70921 16.5082 4.41563 15.3795 0.0224609H15.0364C16.1652 4.45989 17.482 8.78667 18.821 12.9475Z" fill="white"/>
<path opacity="0.6" d="M0.0535049 2.23564C1.62487 8.13378 3.25156 14.2422 3.41755 20.5387C3.63887 28.6832 0.462944 33.3419 -6.01062 34.3932C-6.97336 34.5481 -8.02462 34.6256 -9.13121 34.6256C-20.3853 34.6256 -36.4862 26.5917 -45.1397 22.276C-45.9807 21.8555 -46.7553 21.4682 -47.4636 21.1252L-49.5993 20.0739C-63.0554 13.5008 -75.5378 6.66201 -86.2496 0.0224609H-86.8804C-76.0579 6.75054 -63.4096 13.6999 -49.7431 20.3948L-47.6074 21.4461C-46.9103 21.7891 -46.1357 22.1764 -45.2836 22.5969C-36.6079 26.9237 -20.4516 34.9797 -9.12014 34.9797C-7.99142 34.9797 -6.91802 34.9022 -5.94422 34.7363C0.728531 33.6518 3.99297 28.8824 3.76059 20.5387C3.58353 14.1979 1.95685 8.07845 0.38549 2.15818C0.197365 1.44996 0.00924683 0.741746 -0.178879 0.0335269H-0.521919C-0.333794 0.763878 -0.145676 1.50529 0.0535049 2.23564Z" fill="white"/>
<path opacity="0.6" d="M11.4518 15.3149C11.6178 15.8239 11.7838 16.333 11.9498 16.842C13.7203 22.22 15.5462 27.7862 12.5916 33.1642C10.1239 37.6459 5.13319 41.2866 -0.134186 42.4264C-0.676422 42.5481 -1.21865 42.6367 -1.74981 42.692C-3.06666 42.8469 -4.4499 42.9244 -5.85527 42.9244C-20.7168 42.9244 -38.1456 34.3594 -50.8714 28.1071L-53.0071 27.0669C-69.3515 19.0441 -85.1426 9.43891 -99.0746 0.962411C-99.6611 0.608302 -100.17 0.298456 -100.624 0.0218081H-101.266C-100.214 0.663631 -99.2516 1.25013 -99.2516 1.25013C-85.3196 9.72662 -69.5175 19.3318 -53.151 27.3546L-51.0263 28.3948C-38.2673 34.6581 -20.8053 43.2453 -5.86633 43.2453C-4.43883 43.2453 -3.04453 43.1678 -1.71661 43.0129C-1.17439 42.9465 -0.621094 42.858 -0.0677948 42.7363C5.28811 41.5743 10.3674 37.8783 12.8793 33.3081C15.9003 27.8083 14.0523 22.1758 12.2596 16.7203C12.0937 16.2113 11.9277 15.7022 11.7617 15.1932C10.2014 10.3463 8.67428 5.26705 7.4017 0.0107422H7.05866C8.34231 5.31132 9.88047 10.4348 11.4518 15.3149Z" fill="white"/>
<path opacity="0.6" d="M-0.599552 247.047C-5.45749 248.242 -9.69574 254.97 -13.1151 260.37C-14.3102 262.263 -15.439 264.044 -16.4238 265.317C-21.9125 272.41 -28.1094 278.795 -34.1072 284.959C-35.6675 286.563 -37.6372 288.389 -39.7065 290.315C-45.8813 296.036 -53.5611 303.162 -55.896 309.68C-57.8546 315.158 -56.7038 320.392 -55.5861 325.438C-54.6676 329.588 -53.716 333.881 -54.4685 338.33C-54.9332 341.096 -56.6042 343.818 -58.3858 346.696C-60.5105 350.148 -62.7015 353.711 -62.8343 357.551C-62.8786 358.857 -62.6794 360.141 -62.2367 361.38C-60.776 365.486 -59.2489 367.389 -57.4341 367.389C-55.6082 367.389 -53.6828 365.519 -50.7835 360.949C-48.017 356.577 -46.9326 351.52 -45.8813 346.629C-44.83 341.716 -43.7345 336.637 -40.9459 332.244C-35.6343 323.878 -26.2725 317.703 -18.0173 312.27C-17.3202 311.816 -16.6341 311.351 -15.948 310.908C-2.23731 301.823 8.59622 294.642 13.432 275.32C14.7157 270.208 14.3726 257.172 9.17165 250.511C6.63755 247.268 3.31779 246.084 -0.599552 247.047ZM8.72901 250.843C13.3878 256.818 14.3173 269.444 12.8898 275.177C8.10932 294.298 -2.64675 301.425 -16.2578 310.444C-16.9329 310.897 -17.63 311.351 -18.3272 311.805C-26.6377 317.271 -36.0548 323.479 -41.4217 331.945C-44.2657 336.426 -45.3612 341.55 -46.4346 346.519C-47.4748 351.365 -48.5482 356.378 -51.2593 360.661C-53.1959 363.715 -55.4423 366.847 -57.4341 366.847C-58.9612 366.847 -60.3555 364.999 -61.7166 361.203C-62.1371 360.019 -62.3253 358.824 -62.281 357.573C-62.1482 353.888 -60.0014 350.381 -57.91 346.994C-56.1062 344.062 -54.4021 341.295 -53.9262 338.429C-53.1516 333.87 -54.1143 329.521 -55.0439 325.327C-56.1947 320.115 -57.2903 315.202 -55.3759 309.868C-53.0852 303.483 -45.4608 296.412 -39.3303 290.724C-37.2499 288.788 -35.2802 286.973 -33.7088 285.346C-27.7 279.16 -21.492 272.764 -15.9812 265.649C-14.9742 264.354 -13.8455 262.55 -12.6393 260.658C-9.27524 255.346 -5.10339 248.729 -0.466766 247.578C0.374245 247.368 1.19313 247.268 1.96774 247.268C4.60143 247.279 6.881 248.474 8.72901 250.843Z" fill="white"/>
<path opacity="0.6" d="M4.49061 223.023C1.85693 219.227 -0.433731 218.74 -2.86823 218.22C-4.53918 217.866 -6.27654 217.49 -8.25734 215.996L-8.42332 215.808C-14.0669 209.489 -33.0007 188.884 -39.4079 188.884C-40.1604 188.884 -40.7469 189.15 -41.1563 189.681C-42.0084 190.799 -41.9641 193.045 -41.0235 196.553C-40.4592 198.633 -35.1033 201.51 -29.4264 204.565C-24.7013 207.099 -19.8102 209.721 -18.1503 211.691C-16.6674 213.462 -14.7088 215.907 -14.8858 216.748C-14.9301 216.981 -15.1846 217.113 -15.6162 217.324C-16.601 217.811 -18.0949 218.563 -17.2982 222.049C-16.7449 224.461 -15.251 226.863 -13.8124 229.186C-12.4624 231.344 -11.1898 233.391 -10.6808 235.372C-9.26433 240.817 -18.1835 250.809 -24.0816 257.416C-26.0292 259.596 -27.7112 261.477 -28.7846 262.904C-33.0782 268.603 -38.4452 273.893 -43.624 278.994C-53.7051 288.931 -64.1181 299.2 -67.792 313.376C-73.2696 334.567 -74.3651 353.28 -71.0343 368.993C-69.2637 377.381 -63.1554 389.067 -57.2351 389.067C-53.5501 389.067 -50.8611 384.64 -49.2566 375.898C-43.0597 342.236 -26.162 331.037 -9.80657 320.204C4.67872 310.609 18.3562 301.546 24.2433 277.998C26.4565 269.112 23.0482 255.457 18.6107 247.899C16.6299 244.524 14.1401 242.631 11.7277 240.795C9.61414 239.179 7.6112 237.663 6.06197 235.228C4.96645 233.513 5.16563 231.499 5.36482 229.386C5.60827 227.217 5.82959 224.948 4.49061 223.023ZM5.43121 235.671C7.04684 238.216 9.1051 239.776 11.2851 241.436C13.6311 243.229 16.0656 245.077 17.9689 248.319C22.3289 255.745 25.6818 269.145 23.5129 277.843C17.7033 301.093 4.14756 310.078 -10.216 319.584C-26.6932 330.506 -43.7457 341.804 -49.998 375.788C-51.5029 383.988 -54.0038 388.325 -57.224 388.325C-62.248 388.325 -68.3674 377.857 -70.2707 368.86C-73.5684 353.269 -72.4839 334.667 -67.0284 313.597C-63.4209 299.621 -53.0743 289.429 -43.0707 279.569C-37.8697 274.446 -32.4917 269.145 -28.1539 263.391C-27.1026 261.997 -25.4316 260.127 -23.4951 257.958C-17.1211 250.82 -8.40118 241.038 -9.92828 235.206C-10.4816 233.104 -11.7763 231.023 -13.1595 228.81C-14.576 226.542 -16.0256 224.207 -16.5457 221.916C-17.2097 219.017 -16.1805 218.508 -15.2731 218.054C-14.7752 217.8 -14.2551 217.545 -14.1223 216.936C-13.9563 216.129 -14.4653 214.889 -17.5527 211.226C-19.3011 209.146 -24.2587 206.49 -29.0502 203.912C-34.0852 201.212 -39.7841 198.146 -40.26 196.387C-41.3444 192.381 -41.0014 190.81 -40.5256 190.19C-40.271 189.858 -39.9059 189.703 -39.3968 189.703C-34.561 189.703 -20.5184 203.48 -8.98768 216.361C-8.84383 216.516 -8.76637 216.604 -8.7553 216.604C-6.59744 218.242 -4.69411 218.652 -3.02316 219.006C-0.655045 219.515 1.39216 219.946 3.85986 223.498C5.03284 225.18 4.83365 227.217 4.6234 229.363C4.41315 231.488 4.19183 233.723 5.43121 235.671Z" fill="white"/>
<path opacity="0.6" d="M75.988 0.0888565C76.0102 0.0667246 76.0212 0.0445928 76.0434 0.0224609H75.5897C74.8925 0.763878 74.1954 1.53849 73.7085 2.66722C72.3363 5.89847 72.7236 9.2625 73.0998 12.5159C73.3101 14.3307 73.5314 16.2008 73.4429 18.0378C73.3101 20.926 72.7125 23.9138 72.1482 26.8131C71.6834 29.2033 71.1965 31.671 70.9641 34.0834C69.5477 48.7236 70.8313 61.9584 74.7708 73.4227C75.5897 75.8019 78.7988 79.4647 82.196 83.3378C86.5339 88.2953 91.0266 93.4188 91.2037 96.5284C91.2479 97.2255 91.0709 97.7677 90.6615 98.1993C89.4885 99.4387 86.3457 99.6711 81.3107 98.8743C77.659 98.2989 74.14 96.7718 70.7428 95.289C68.762 94.4258 66.7037 93.5295 64.6565 92.8434C64.0811 92.6442 63.4835 92.4561 62.8639 92.2458C55.505 89.8224 45.435 86.4916 43.9854 80.6709C43.2993 77.8933 44.6494 74.7174 48.0023 71.2317C53.2808 65.743 58.7473 60.0661 62.4434 51.4458C65.9845 43.1796 70.0678 27.1008 68.5075 18.403C68.1866 16.6213 67.4452 15.4152 66.7259 14.2532C65.7631 12.6929 64.8557 11.2212 65.2652 8.55429C65.575 6.58455 66.3386 5.4337 67.0136 4.4267C67.8214 3.20945 68.5296 2.10285 68.3304 0.0224609H67.9984C68.1976 2.00326 67.5337 3.03239 66.7369 4.24964C66.0398 5.28984 65.2541 6.47389 64.9443 8.51002C64.5127 11.2986 65.4533 12.8257 66.4492 14.4303C67.1574 15.5701 67.8767 16.7431 68.1866 18.4694C69.7358 27.1118 65.6746 43.1021 62.1446 51.3241C58.4707 59.8891 53.0263 65.5438 47.7699 71.0103C44.3395 74.5846 42.9563 77.8601 43.6756 80.7594C45.1584 86.7571 55.339 90.1212 62.7753 92.5778C63.395 92.777 63.9926 92.9762 64.568 93.1754C66.6041 93.8615 68.6513 94.7467 70.6211 95.6099C74.0404 97.0927 77.5705 98.6309 81.2665 99.2174C83.2473 99.5272 84.9514 99.6932 86.3457 99.6932C88.6253 99.6932 90.1192 99.2838 90.9049 98.4428C91.3697 97.9448 91.5799 97.303 91.5357 96.5284C91.3475 93.3082 86.8216 88.1404 82.4395 83.1386C79.0644 79.2877 75.8774 75.647 75.0806 73.3342C71.1522 61.9142 69.8796 48.7236 71.285 34.1387C71.5174 31.7485 72.0043 29.2808 72.4691 26.9016C73.0445 23.9912 73.631 20.9924 73.7638 18.082C73.8523 16.223 73.631 14.3307 73.4208 12.5048C73.0334 9.14078 72.6572 5.97593 74.0072 2.82214C74.5163 1.64915 75.2577 0.852405 75.988 0.0888565Z" fill="white"/>
<path opacity="0.6" d="M39.6803 6.24151C46.685 28.0524 53.9221 50.5937 26.5782 66.4069C22.4949 68.775 17.9025 70.5013 12.9561 71.5526C8.96126 72.4046 4.62341 72.8362 0.0642548 72.8362C-36.907 72.8362 -83.1515 45.3485 -111.989 27.8201V28.7275C-83.0519 46.3001 -36.9402 73.6108 0.0642548 73.6108C4.67875 73.6108 9.06085 73.1793 13.111 72.3161C18.146 71.2427 22.8047 69.4832 26.9655 67.0819C54.8516 50.9589 47.5149 28.1078 40.4217 6.00912C39.7798 3.99513 39.138 2.00326 38.5294 0.0224609H37.7216C38.3413 2.08072 39.0163 4.15005 39.6803 6.24151Z" fill="white"/>
<path opacity="0.6" d="M112.174 387.961C126.858 386.29 142.605 369.281 142.804 354.873C143.114 332.786 130.421 315.136 118.138 298.072C116.058 295.173 113.9 292.174 111.864 289.23L110.636 287.46C104.859 279.138 98.3081 269.699 96.1724 259.507C94.3686 250.865 91.6132 230.758 94.6121 223.809C96.8142 218.718 103.078 215.808 109.131 212.997C113.314 211.05 117.264 209.213 120.042 206.701L120.174 206.579C129.669 197.981 129.669 197.981 136.142 197.759C138.101 197.693 140.536 197.605 143.977 197.284C148.592 196.852 151.314 196.177 153.306 195.69C154.567 195.38 155.486 195.148 156.294 195.148C158.285 195.148 159.956 196.564 165.478 201.234C181.8 215.055 181.491 239.091 181.203 262.34C180.827 291.587 180.439 321.842 213.549 331.414C218.307 332.786 222.944 333.494 227.326 333.494C239.775 333.494 250.365 327.928 257.967 317.415C269.122 301.978 272.087 277.899 265.337 257.482C249.767 210.364 212.564 183.418 172.549 157.745C136.176 134.407 101.539 127.978 71.9159 123.784C69.7691 123.485 67.733 123.33 65.8518 123.33C53.8452 123.33 48.1352 129.438 40.9092 137.174C38.1427 140.139 35.2766 143.193 31.7245 146.325C27.6522 149.899 22.4844 152.345 17.4716 154.713C9.3049 158.575 1.59196 162.216 -1.59502 170.327C-8.3563 187.535 8.25365 200.935 22.916 212.765C29.6994 218.242 36.1066 223.41 39.869 228.578C54.7526 249.072 50.3041 283.631 36.8037 303.052C32.5876 309.116 24.5095 316.607 15.9555 324.553C1.79115 337.699 -14.2655 352.605 -17.0984 365.12C-18.4374 371.008 -18.0832 375.124 -16.0361 377.691C-14.3208 379.838 -11.4326 380.878 -7.20545 380.878C-0.244982 380.878 9.71435 378.012 20.2602 374.98C33.152 371.273 47.7701 367.068 60.2303 367.068C66.1727 367.068 71.097 367.987 75.2689 369.89C80.0715 372.081 84.1437 375.235 88.0721 378.3C94.5678 383.346 100.698 388.115 109.374 388.115C110.292 388.115 111.233 388.06 112.174 387.961ZM75.5123 369.392C71.263 367.455 66.2723 366.515 60.2413 366.515C47.7037 366.515 33.0413 370.731 20.1163 374.449C9.60368 377.47 -0.322443 380.325 -7.20545 380.325C-11.2556 380.325 -13.9999 379.351 -15.5934 377.348C-17.53 374.925 -17.8509 370.963 -16.5562 365.253C-13.7565 352.904 2.23378 338.064 16.3318 324.962C24.9079 317.006 33.0081 309.481 37.2574 303.373C50.8685 283.797 55.3391 248.939 40.3116 228.257C36.516 223.034 30.0756 217.833 23.259 212.333C8.75161 200.626 -7.69235 187.346 -1.08599 170.526C2.02353 162.625 9.63688 159.018 17.7039 155.211C22.75 152.832 27.962 150.364 32.0896 146.735C35.6639 143.592 38.5411 140.515 41.3186 137.55C48.4561 129.914 54.0887 123.883 65.8628 123.883C67.7219 123.883 69.7359 124.038 71.8495 124.337C101.407 128.52 135.976 134.938 172.262 158.221C212.187 183.839 249.314 210.718 264.828 257.67C271.523 277.932 268.59 301.812 257.536 317.105C250.044 327.474 239.598 332.952 227.337 332.952C223.01 332.952 218.429 332.266 213.715 330.894C199.052 326.655 189.768 317.935 185.353 304.258C181.391 292.008 181.59 276.936 181.778 262.362C182.077 238.991 182.387 214.823 165.866 200.825C157.976 194.141 157.754 194.03 153.195 195.159C151.225 195.646 148.514 196.31 143.944 196.741C140.525 197.062 138.09 197.151 136.142 197.217C129.47 197.45 129.47 197.45 119.82 206.181L119.687 206.302C116.976 208.759 113.059 210.585 108.909 212.51C102.757 215.365 96.3937 218.331 94.1141 223.609C91.0599 230.681 93.8264 250.931 95.6412 259.64C97.788 269.942 104.372 279.426 110.182 287.803L111.41 289.573C113.446 292.517 115.604 295.516 117.696 298.415C129.923 315.412 142.572 332.974 142.262 354.884C142.063 369.06 126.57 385.781 112.118 387.429C111.2 387.529 110.281 387.584 109.396 387.584C100.909 387.584 94.8555 382.87 88.4373 377.891C84.4646 374.792 80.3703 371.605 75.5123 369.392Z" fill="white"/>
<path opacity="0.6" d="M370.917 217.556C370.352 217.147 369.489 216.394 368.394 215.432C364.189 211.758 357.14 205.616 352.171 205.616C350.224 205.616 348.774 206.557 347.855 208.416C346.705 210.74 349.239 216.14 350.921 219.714C351.33 220.588 351.684 221.341 351.906 221.883C352.359 223.001 352.78 224.019 353.123 224.937C355.469 231.09 357.903 237.442 359.707 244.347C359.895 245.066 360.083 245.885 360.271 246.748C361.101 250.433 362.119 255.003 364.665 257.25C365.649 258.124 366.612 258.699 367.531 258.976C367.951 259.098 368.361 259.164 368.77 259.164C371.78 259.164 373.849 255.745 375.852 252.436C376.306 251.684 376.782 250.898 377.246 250.19L377.689 249.515C385.314 237.907 389.917 230.891 375.896 221.164C374.535 220.19 372.765 218.906 370.917 217.556ZM377.224 249.194L376.782 249.869C376.306 250.599 375.83 251.374 375.376 252.137C373.451 255.313 371.47 258.6 368.77 258.6C368.416 258.6 368.062 258.545 367.697 258.434C366.867 258.19 365.97 257.648 365.041 256.829C362.628 254.705 361.621 250.223 360.814 246.615C360.614 245.741 360.437 244.922 360.249 244.203C358.434 237.276 356 230.902 353.643 224.738C353.289 223.82 352.879 222.791 352.415 221.673C352.182 221.12 351.828 220.356 351.419 219.471C349.88 216.206 347.313 210.74 348.353 208.659C349.183 206.988 350.434 206.17 352.171 206.17C356.929 206.17 363.879 212.234 368.029 215.852C369.135 216.815 370.009 217.578 370.596 218.01C372.444 219.36 374.214 220.655 375.587 221.606C389.153 231.024 384.661 237.862 377.224 249.194Z" fill="white"/>
<path opacity="0.6" d="M379.991 205.14C377.546 203.358 375.111 201.366 372.533 199.264C364.643 192.824 355.713 185.52 347.679 185.52C346.097 185.52 344.592 185.797 343.076 186.372C328.889 191.739 330.925 206.733 333.393 215.199C334.909 220.367 336.857 225.49 338.749 230.437C340.951 236.202 343.23 242.166 344.813 248.242C345.776 251.904 346.251 255.766 346.716 259.496C348.144 270.949 349.494 281.76 364.765 281.76C365.971 281.76 367.277 281.694 368.638 281.561C370.375 281.384 371.803 281.118 373.02 280.731C377.081 279.425 378.298 276.958 380.135 273.229C380.689 272.1 381.319 270.827 382.105 269.455C383.3 267.341 384.606 265.339 385.967 263.413V262.838C384.506 264.896 383.101 267.032 381.817 269.289C381.032 270.672 380.401 271.956 379.837 273.085C378.033 276.736 376.849 279.149 372.92 280.41C371.725 280.798 370.32 281.063 368.605 281.229C367.255 281.362 365.96 281.428 364.765 281.428C349.782 281.428 348.52 271.248 347.048 259.451C346.583 255.711 346.097 251.838 345.134 248.153C343.54 242.056 341.261 236.091 339.048 230.315C337.155 225.368 335.208 220.267 333.692 215.11C331.246 206.756 329.232 191.949 343.164 186.682C344.636 186.129 346.108 185.852 347.646 185.852C355.558 185.852 364.444 193.111 372.29 199.518C374.868 201.632 377.314 203.624 379.759 205.405C381.607 206.756 383.234 207.94 384.451 208.781C384.949 209.124 385.447 209.467 385.945 209.81V209.411C385.513 209.113 385.071 208.814 384.639 208.515C383.455 207.663 381.828 206.479 379.991 205.14Z" fill="white"/>
<path opacity="0.6" d="M346.196 44.2083C344.746 44.2083 343.33 44.1973 341.936 44.1862C340.597 44.1751 339.28 44.1641 337.985 44.1641C330.438 44.1641 324.429 44.5735 317.812 46.5764C314.348 47.6277 311.106 49.2765 307.963 50.8811C302.729 53.548 297.772 56.071 291.851 56.071C290.866 56.071 289.871 56.0046 288.897 55.8607C284.526 55.23 281.261 52.6516 278.096 50.1618C274.544 47.3621 271.18 44.7174 266.477 44.7174C266.046 44.7174 265.614 44.7395 265.171 44.7838C262.261 45.0825 257.613 47.6941 253.11 50.2282C250.21 51.8549 247.477 53.393 245.54 54.1013C242.719 55.1415 240.605 55.6394 239.067 56.0157C234.419 57.1223 233.833 57.5317 231.564 66.0967C230.944 68.4648 230.491 70.678 230.048 72.8137C228.421 80.7591 227.138 87.0334 218.672 93.0201C212.962 97.0481 205.714 99.0178 196.507 99.0178C187.389 99.0178 177.861 97.1145 169.451 95.4214C165.058 94.5361 160.897 93.7062 157.821 93.3853C156.028 93.1972 153.262 93.0754 150.429 93.0754C142.306 93.0754 132.79 96.0522 132.126 100.313C131.816 102.338 133.387 105.37 142.705 108.346L143.745 108.678C179.233 120.065 203.988 134.916 229.174 159.947C236.123 166.852 241.435 170.072 245.872 170.072C246.913 170.072 247.942 169.884 248.904 169.53C253.63 167.77 257.071 161.806 261.066 154.901C263.124 151.338 265.459 147.298 268.226 143.403C281.593 124.569 300.77 110.803 322.227 104.65C328.557 102.836 334.743 101.917 340.597 101.917C359.708 101.917 373.197 111.279 385.967 120.906V120.209C373.219 110.615 359.73 101.364 340.597 101.364C334.688 101.364 328.457 102.293 322.072 104.119C300.494 110.305 281.206 124.149 267.772 143.082C264.994 146.989 262.659 151.05 260.59 154.624C256.651 161.441 253.253 167.317 248.716 169.01C247.809 169.353 246.857 169.519 245.872 169.519C241.579 169.519 236.4 166.354 229.561 159.559C204.309 134.462 179.488 119.567 143.911 108.158L142.871 107.826C135.899 105.602 132.281 102.957 132.679 100.412C133.232 96.871 141.698 93.6398 150.44 93.6398C153.251 93.6398 155.995 93.7505 157.766 93.9386C160.82 94.2595 164.969 95.0894 169.352 95.9747C177.784 97.6678 187.345 99.5822 196.518 99.5822C205.836 99.5822 213.195 97.5903 219.004 93.4849C227.647 87.3654 228.953 80.9914 230.601 72.9355C231.044 70.7997 231.487 68.5976 232.117 66.2406C234.364 57.7087 234.829 57.5981 239.211 56.5579C240.771 56.1927 242.896 55.6837 245.751 54.6324C247.731 53.9021 250.487 52.3528 253.397 50.7151C257.635 48.3359 262.449 45.6248 265.238 45.3371C265.658 45.2928 266.079 45.2707 266.488 45.2707C271.003 45.2707 274.29 47.8601 277.775 50.5934C280.996 53.1275 284.327 55.7501 288.841 56.403C289.848 56.5468 290.878 56.6243 291.885 56.6243C297.938 56.6243 303.183 53.9574 308.24 51.379C311.361 49.7966 314.581 48.1478 317.989 47.1187C324.551 45.1268 330.505 44.7284 337.996 44.7284C339.291 44.7284 340.597 44.7395 341.936 44.7506C343.33 44.7616 344.746 44.7727 346.196 44.7727C352.957 44.7727 358.999 45.5584 364.687 47.1851C371.869 49.2323 378.918 52.0983 385.978 55.4402V54.8316C378.973 51.534 371.98 48.69 364.842 46.6539C359.099 45.0051 353.002 44.2083 346.196 44.2083Z" fill="white"/>
<path opacity="0.6" d="M380.256 214.867C378.973 213.97 377.235 212.709 375.421 211.381C372.82 209.478 370.308 207.431 367.63 205.251C367.033 204.764 366.369 204.199 365.672 203.613C361.212 199.828 355.104 194.649 349.482 194.649C347.933 194.649 346.494 195.048 345.211 195.845C335.495 201.853 341.338 216.195 344.823 224.76C345.244 225.8 345.653 226.785 345.985 227.659C348.265 233.613 350.622 239.776 352.315 246.272C352.636 247.489 352.957 248.928 353.289 250.444C354.838 257.393 356.952 266.921 362.274 270.351C363.149 270.916 364.078 271.27 365.019 271.403C365.295 271.447 365.594 271.458 365.882 271.458C372.389 271.458 378.873 261.576 383.621 254.35C384.484 253.044 385.258 251.86 385.978 250.831V250.256C385.192 251.373 384.318 252.69 383.344 254.173C378.652 261.333 372.212 271.126 365.882 271.126C365.605 271.126 365.34 271.104 365.063 271.071C364.167 270.949 363.292 270.606 362.451 270.075C357.239 266.722 355.137 257.271 353.61 250.377C353.267 248.861 352.957 247.423 352.636 246.194C350.932 239.688 348.575 233.513 346.295 227.548C345.963 226.674 345.565 225.689 345.133 224.649C341.681 216.173 335.915 201.997 345.388 196.143C346.627 195.38 347.999 194.992 349.482 194.992C354.982 194.992 361.035 200.127 365.45 203.878C366.147 204.476 366.811 205.029 367.431 205.538C370.098 207.707 372.61 209.765 375.221 211.669C377.036 212.997 378.774 214.258 380.057 215.155C381.784 216.35 383.532 217.534 385.391 218.795C385.59 218.928 385.778 219.05 385.966 219.183V218.784C385.834 218.696 385.701 218.607 385.557 218.508C383.72 217.246 381.983 216.062 380.256 214.867Z" fill="white"/>
<path opacity="0.6" d="M322.736 293.402C323.366 294.221 324.539 295.339 327.494 295.582C338.549 296.49 355.269 297.851 369.379 310.709L369.544 310.853C374.369 315.257 378.287 320.835 381.186 327.43C381.994 329.245 383.288 330.296 384.76 330.296C385.159 330.296 385.568 330.218 385.977 330.052V329.654C385.579 329.842 385.17 329.964 384.76 329.964C383.432 329.964 382.237 328.99 381.485 327.297C378.563 320.658 374.613 315.047 369.755 310.61L369.589 310.466C355.391 297.53 338.604 296.158 327.505 295.25C324.683 295.018 323.566 293.967 322.979 293.203C321.574 291.355 321.397 288.522 321.552 287.648C323.09 280.876 325.004 272.443 324.285 263.225C323.079 247.611 316.826 234.188 310.796 221.208C305.949 210.795 300.46 198.988 302.363 193.61C305.761 184.038 319.637 170.305 325.436 164.849C329.121 161.386 333.514 159.626 338.471 159.626C341.304 159.626 343.75 160.224 345.31 160.722C355.491 163.997 369.899 171.522 385.966 181.847V181.448C369.954 171.168 355.579 163.676 345.41 160.401C343.838 159.892 341.349 159.283 338.471 159.283C333.425 159.283 328.966 161.076 325.214 164.606C319.394 170.084 305.473 183.861 302.053 193.499C300.106 199.01 305.628 210.873 310.497 221.352C316.517 234.299 322.747 247.689 323.964 263.248C324.683 272.421 322.769 280.82 321.242 287.593C321.076 288.5 321.264 291.477 322.736 293.402Z" fill="white"/>
<path opacity="0.6" d="M240.782 17.1854C250.332 23.1831 261.464 26.0934 274.809 26.0934C287.093 26.0934 299.951 23.6811 312.389 21.3351C324.495 19.0555 337 16.7095 348.63 16.7095C360.426 16.7095 370.198 19.1551 378.519 24.1901C379.969 25.0643 381.496 25.9938 383.078 26.9676C384.019 27.5431 384.982 28.1296 385.966 28.7271V27.8197C385.125 27.3107 384.296 26.8017 383.477 26.3037C381.883 25.341 380.367 24.4114 378.917 23.5261C370.485 18.4137 360.57 15.9349 348.63 15.9349C336.922 15.9349 324.374 18.292 312.245 20.5715C299.84 22.9065 287.026 25.3078 274.809 25.3078C261.608 25.3078 250.608 22.4306 241.191 16.5104C234.861 12.5377 231.807 8.35477 232.106 4.09439C232.206 2.73328 232.648 1.36111 233.423 0H232.56C231.851 1.33898 231.431 2.68902 231.342 4.03906C231.021 8.63142 234.197 13.0467 240.782 17.1854Z" fill="white"/>
<path opacity="0.6" d="M343.562 283.376C346.085 284.759 349.538 285.346 352.88 285.91C355.358 286.331 357.915 286.762 359.995 287.515C361.312 287.991 362.761 288.71 364.3 289.462C367.475 291.023 371.072 292.804 374.347 292.804C374.978 292.804 375.587 292.738 376.162 292.605C376.317 292.572 376.461 292.528 376.616 292.483C381.308 291.089 383.809 285.202 385.967 279.802V278.906C385.956 278.939 385.945 278.972 385.922 279.005C383.731 284.516 381.253 290.757 376.516 292.174C376.372 292.218 376.229 292.251 376.085 292.284C375.543 292.406 374.956 292.472 374.347 292.472C371.149 292.472 367.586 290.713 364.443 289.164C362.894 288.4 361.433 287.681 360.106 287.205C357.992 286.441 355.414 286.01 352.924 285.578C349.604 285.014 346.174 284.427 343.706 283.077C338.239 280.079 338.815 274.59 339.412 268.78C339.645 266.512 339.888 264.155 339.722 262.008C338.295 243.594 331.456 228.888 324.838 214.679C321.84 208.227 321.618 201.145 324.219 194.76C327.041 187.844 332.95 182.256 340.43 179.434C342.765 178.549 345.189 178.106 347.656 178.106C358.335 178.106 368.361 186.295 377.202 193.521C379.703 195.568 382.071 197.494 384.34 199.153C384.926 199.585 385.458 199.972 385.956 200.338V199.928C385.513 199.607 385.037 199.264 384.528 198.888C382.271 197.239 379.903 195.314 377.402 193.266C368.516 186.007 358.435 177.785 347.645 177.785C345.144 177.785 342.677 178.239 340.309 179.135C332.74 181.99 326.764 187.645 323.909 194.65C321.264 201.123 321.497 208.294 324.54 214.834C331.146 229.031 337.974 243.705 339.39 262.052C339.556 264.166 339.313 266.512 339.08 268.769C338.516 274.413 337.907 280.267 343.562 283.376Z" fill="white"/>
<path opacity="0.6" d="M346.196 55.3848C336.889 55.3848 326.996 57.0668 316.495 58.8595C304.688 60.8735 292.471 62.9539 279.468 62.9539C278.528 62.9539 277.598 62.9428 276.713 62.9207C272.198 62.81 268.369 62.0686 264.994 61.4157C262.073 60.8513 259.55 60.3534 257.126 60.3534C251.372 60.3534 247.145 63.3854 242.53 70.7996C240.306 74.3739 238.679 78.6564 237.108 82.784C234.33 90.0986 231.453 97.6677 225.113 102.149C222.933 103.688 218.75 104.883 214.323 106.155C206.588 108.368 197.824 110.869 196.629 116.092C195.146 122.643 208.591 131.596 215.817 136.409C217.156 137.306 218.318 138.08 219.082 138.634C227.558 144.853 234.563 148.991 241.224 148.991C242.132 148.991 243.039 148.914 243.925 148.748C249.236 147.796 254.061 144.034 259.107 136.918C273.935 116.026 295.259 100.744 319.151 93.8831C326.487 91.7806 333.702 90.7183 340.608 90.7183C359.696 90.7183 373.827 98.4312 385.978 107.018V106.609C373.827 98.0439 359.696 90.3863 340.608 90.3863C333.68 90.3863 326.432 91.4597 319.062 93.5733C295.093 100.445 273.714 115.771 258.841 136.73C253.851 143.768 249.092 147.486 243.869 148.416C243.006 148.571 242.121 148.648 241.224 148.648C234.651 148.648 227.702 144.532 219.281 138.357C218.517 137.793 217.344 137.018 216.005 136.122C208.846 131.352 195.522 122.477 196.95 116.148C198.101 111.113 206.765 108.645 214.412 106.465C218.871 105.192 223.076 103.997 225.301 102.415C231.73 97.8779 234.618 90.2645 237.418 82.9057C238.978 78.7892 240.605 74.5288 242.807 70.9767C247.355 63.6621 251.494 60.6853 257.115 60.6853C259.505 60.6853 262.006 61.1722 264.917 61.7366C268.303 62.4006 272.154 63.142 276.691 63.2526C277.587 63.2748 278.517 63.2858 279.457 63.2858C292.493 63.2858 304.721 61.2054 316.561 59.1804C327.03 57.3988 336.912 55.7057 346.185 55.7057C351.917 55.7057 356.974 56.3586 361.666 57.6975C369.711 59.9882 377.756 63.4961 385.967 67.6015V67.2253C377.789 63.142 369.777 59.6562 361.754 57.3656C357.051 56.0487 351.95 55.3848 346.196 55.3848Z" fill="white"/>
<path opacity="0.6" d="M336.402 289.341C338.671 289.905 340.873 290.425 343.02 290.912C354.595 293.59 364.576 295.914 374.569 304.955L374.768 305.132C377.07 307.212 378.873 308.219 380.312 308.219C380.533 308.219 380.755 308.197 380.965 308.142C383.134 307.644 384.218 304.612 385.402 300.706C385.59 300.097 385.79 299.499 385.978 298.891V297.806C385.668 298.736 385.369 299.677 385.081 300.606C383.919 304.413 382.879 307.356 380.887 307.821C379.449 308.153 377.557 307.201 374.989 304.877L374.79 304.7C364.731 295.593 354.705 293.269 343.086 290.58C340.95 290.082 338.737 289.573 336.48 289.009C328.368 286.973 329.741 279.337 331.069 271.967C331.644 268.747 332.253 265.405 332.031 262.617C330.714 245.608 324.175 231.544 317.845 217.933C317.092 216.306 316.273 214.723 315.499 213.185C311.438 205.207 307.919 198.324 312.943 189.847C316.716 183.473 322.382 178.25 327.848 173.204C328.833 172.297 329.818 171.389 330.781 170.482C332.894 168.501 335.772 167.494 339.324 167.494C352.957 167.494 373.927 182.002 385.989 190.744V190.334C373.861 181.559 352.979 167.162 339.324 167.162C335.683 167.162 332.728 168.202 330.548 170.238C329.586 171.146 328.601 172.053 327.616 172.961C322.127 178.029 316.451 183.263 312.644 189.681C307.531 198.313 311.25 205.616 315.189 213.34C315.975 214.878 316.782 216.461 317.535 218.087C323.843 231.665 330.383 245.697 331.688 262.65C331.899 265.394 331.301 268.714 330.726 271.912C329.387 279.437 327.981 287.227 336.402 289.341Z" fill="white"/>
<path opacity="0.6" d="M103.52 448.701C100.72 452.928 97.2346 458.173 98.4408 461.803C98.9277 463.285 100.167 464.392 102.115 465.089C102.48 465.222 102.889 465.288 103.321 465.288C107.592 465.288 114.365 458.682 120.34 452.861C124.136 449.154 127.732 445.658 129.89 444.673C140.204 439.992 154.434 437.767 166.983 435.798C171.941 435.023 176.621 434.293 180.937 433.441C190.786 431.515 200.291 430.53 209.2 430.53C238.347 430.53 262.814 441.021 281.936 461.703C284.083 464.027 287.192 465.2 291.209 465.2C303.691 465.2 325.104 453.05 340.176 430.53C349.195 417.063 362.297 389.52 348.674 356.444C343.219 343.187 335.108 337.012 323.145 337.012C314.049 337.012 303.669 340.354 291.652 344.227C276.868 348.997 260.103 354.397 242.065 354.397C228.023 354.397 215.131 351.155 202.649 344.504C164.139 323.966 163.021 286.507 166.341 256.165C167.636 244.368 165.533 235.029 160.277 229.153C156.559 225.003 151.502 222.812 145.637 222.812C134.527 222.812 120.661 231.432 115.659 247.921C110.956 263.435 122.111 277.544 135.025 293.877C149.599 312.291 166.109 333.161 162.9 361.014C161.306 374.825 156.271 388.07 149.41 396.458C144.209 402.821 139.617 403.386 134.748 403.983C131.03 404.437 127.19 404.913 122.686 407.768C119.245 409.948 118.171 413.666 117.032 417.594C116.246 420.305 115.427 423.105 113.778 425.407C112.871 426.668 111.288 426.945 109.628 427.233C107.426 427.62 104.925 428.052 103.609 430.896C102.69 432.876 103.907 435.211 105.08 437.469C106.065 439.35 107.072 441.298 106.773 442.913C106.497 444.219 105.114 446.299 103.52 448.701ZM105.611 437.181C104.461 434.968 103.365 432.865 104.151 431.172C105.335 428.627 107.559 428.24 109.706 427.863C111.432 427.565 113.214 427.255 114.265 425.783C115.98 423.393 116.81 420.538 117.618 417.782C118.725 413.965 119.776 410.368 123.007 408.321C127.389 405.544 131.163 405.079 134.803 404.625C139.805 404.005 144.519 403.43 149.886 396.868C156.813 388.391 161.915 375.013 163.519 361.092C166.751 332.973 150.152 311.992 135.512 293.479C122.708 277.29 111.642 263.302 116.257 248.109C121.17 231.919 134.748 223.454 145.626 223.454C151.303 223.454 156.205 225.567 159.79 229.573C164.925 235.305 166.972 244.468 165.699 256.087C162.358 286.629 163.497 324.342 202.339 345.057C214.921 351.763 227.912 355.028 242.065 355.028C260.202 355.028 277.012 349.605 291.84 344.825C303.802 340.963 314.138 337.632 323.134 337.632C334.964 337.632 342.655 343.508 348.077 356.665C361.588 389.476 348.586 416.787 339.645 430.154C325.226 451.677 303.691 464.547 291.198 464.547C287.38 464.547 284.415 463.44 282.401 461.26C263.157 440.445 238.524 429.889 209.2 429.889C200.258 429.889 190.708 430.873 180.815 432.81C176.511 433.651 171.83 434.381 166.883 435.156C154.29 437.126 140.026 439.361 129.625 444.075C127.367 445.104 123.903 448.479 119.898 452.386C114.011 458.129 107.338 464.636 103.321 464.636C102.967 464.636 102.635 464.58 102.336 464.481C100.565 463.839 99.492 462.898 99.0605 461.592C97.9539 458.262 101.34 453.149 104.062 449.044C105.7 446.576 107.105 444.451 107.371 443.035C107.703 441.209 106.641 439.162 105.611 437.181Z" fill="white"/>
<path opacity="0.6" d="M370.972 373.176C372.4 374.083 374.701 374.581 377.479 374.581C379.946 374.581 382.868 374.172 385.977 373.22V372.412C382.868 373.386 379.946 373.806 377.479 373.806C374.889 373.806 372.676 373.342 371.393 372.523C364.886 368.373 362.02 361.036 358.977 353.279C356.354 346.584 353.632 339.657 348.364 334.777L348.353 334.544L348.121 334.556C342.057 329.211 333.901 326.61 323.167 326.61C312.699 326.61 301.688 329.122 292.847 331.136C286.805 332.519 281.581 333.704 278.217 333.704C276.248 333.704 275.042 333.294 274.544 332.464C273.88 331.358 274.378 329.266 276.015 326.278C283.662 312.313 299.11 279.027 298.037 265.25C297.196 254.383 291.972 243.151 286.915 232.295C279.601 216.571 272.043 200.326 277.542 184.789C283.828 167.073 311.504 135.402 331.19 132.724C332.341 132.569 333.58 132.492 334.875 132.492C347.689 132.492 366.424 140.127 385.955 151.182V150.352C366.413 139.32 347.689 131.717 334.875 131.717C333.547 131.717 332.274 131.795 331.09 131.961C311.15 134.683 283.153 166.652 276.812 184.535C271.202 200.359 278.837 216.759 286.207 232.627C291.231 243.417 296.421 254.582 297.251 265.316C298.203 277.599 284.735 308.728 275.329 325.913C273.503 329.255 273.028 331.468 273.869 332.874C274.51 333.969 275.938 334.489 278.206 334.489C281.659 334.489 286.915 333.294 293.002 331.9C301.81 329.886 312.776 327.385 323.156 327.385C333.757 327.385 341.791 329.952 347.711 335.231C352.924 340 355.624 346.894 358.246 353.556C361.345 361.446 364.266 368.893 370.972 373.176Z" fill="white"/>
<path opacity="0.6" d="M119.267 437.071C119.975 437.259 121.247 437.348 122.863 437.348C126.227 437.348 138.721 436.85 158.208 430.409C174.497 425.031 193.552 422.066 211.844 422.066C241.966 422.066 261.973 426.581 287.745 451.247C289.571 452.995 292.028 453.88 295.027 453.88C306.225 453.88 323.167 441.686 333.591 426.116C341.736 413.954 353.576 389.123 341.349 359.433C336.081 346.652 329.475 344.892 323.123 344.892C315.266 344.892 305.44 348.057 294.053 351.731C278.716 356.677 261.32 362.277 242.043 362.277C226.673 362.277 212.563 358.735 198.908 351.454C155.74 328.437 155.153 285.545 158.473 255.291C159.502 245.918 158.042 238.504 154.379 234.421C152.177 231.964 149.222 230.714 145.615 230.714C137.415 230.714 127.079 237.409 123.195 250.212C119.687 261.776 129.658 274.38 141.199 288.976C155.95 307.622 174.309 330.827 170.723 361.911C169.694 370.819 167.326 379.285 163.663 387.075C157.831 399.48 150.13 410.004 140.757 418.359C134.571 423.87 128.363 427.732 123.837 430.542C119.709 433.11 117.219 434.648 117.397 435.832C117.474 436.374 118.072 436.761 119.267 437.071ZM124.014 430.841C128.551 428.019 134.77 424.157 140.978 418.624C150.384 410.236 158.119 399.679 163.973 387.241C167.658 379.418 170.037 370.908 171.066 361.978C174.663 330.75 156.26 307.478 141.465 288.788C129.978 274.269 120.063 261.732 123.516 250.334C127.356 237.685 137.537 231.068 145.615 231.068C149.123 231.068 151.989 232.274 154.135 234.664C157.743 238.681 159.159 246.007 158.152 255.28C154.833 285.634 155.419 328.658 198.764 351.775C212.475 359.09 226.639 362.642 242.054 362.642C261.386 362.642 278.804 357.031 294.175 352.074C305.528 348.411 315.322 345.257 323.134 345.257C329.375 345.257 335.86 346.995 341.05 359.588C353.211 389.134 341.426 413.855 333.326 425.961C323.134 441.188 305.949 453.57 295.038 453.57C292.116 453.57 289.748 452.718 287.978 451.025C275.484 439.074 263.865 431.472 251.394 427.101C240.66 423.349 228.83 421.745 211.833 421.745C193.497 421.745 174.408 424.711 158.086 430.1C138.654 436.518 126.205 437.016 122.852 437.016C121.27 437.016 120.019 436.916 119.344 436.739C118.326 436.474 117.773 436.153 117.717 435.776C117.585 434.836 120.274 433.154 124.014 430.841Z" fill="white"/>
<path opacity="0.6" d="M145.614 238.36C139.683 238.36 133.165 244.358 131.029 249.747C129.613 253.321 130.697 259.418 133.917 266.08C136.949 272.354 141 277.179 143.987 278.075C144.441 278.208 144.906 278.286 145.348 278.286C145.846 278.286 146.344 278.197 146.82 278.031C150.671 276.692 150.583 274.324 150.395 269.145C150.273 265.958 150.118 261.598 150.771 255.612C151.656 247.567 150.395 241.436 148.69 239.544C148.148 238.924 147.396 238.36 145.614 238.36ZM150.217 255.545C149.554 261.576 149.72 265.958 149.841 269.167C150.029 274.357 150.107 276.305 146.632 277.511C145.824 277.788 144.983 277.81 144.131 277.555C141.287 276.703 137.37 272 134.404 265.848C131.251 259.33 130.177 253.387 131.538 249.957C133.608 244.734 139.893 238.924 145.614 238.913C147.174 238.913 147.816 239.389 148.281 239.898C149.897 241.713 151.081 247.666 150.217 255.545Z" fill="white"/>
<path opacity="0.6" d="M93.7045 0.0224609H92.8967C91.1926 5.98699 89.9974 12.5159 89.3003 19.6977C88.072 32.18 86.9875 48.5244 89.5437 64.2712C91.4028 75.7576 95.1431 80.8701 101.661 80.8701C105.822 80.8701 110.658 78.8561 116.268 76.5101C120.163 74.8834 124.191 73.2125 128.485 71.9952C128.894 71.8735 129.304 71.7628 129.724 71.6522C141.974 68.3656 155.784 67.9008 170.436 70.28C174.364 70.9218 178.348 72.0173 182.21 73.0797C187.831 74.6289 193.641 76.2335 199.539 76.499C202.737 76.6429 205.017 76.3109 206.621 75.5142C211.324 73.1682 209.034 67.3143 206.621 61.1174C205.194 57.4546 203.711 53.659 203.467 50.2617C202.173 32.2022 212.265 15.7471 225.599 0.0224609H224.581C211.346 15.7139 201.398 32.18 202.704 50.3171C202.958 53.836 204.452 57.687 205.913 61.4051C208.303 67.5246 210.361 72.803 206.289 74.8281C204.817 75.5584 202.593 75.8683 199.583 75.7355C193.774 75.481 188.008 73.8875 182.431 72.3493C178.558 71.2759 174.552 70.1693 170.579 69.5275C155.818 67.1373 141.897 67.6131 129.547 70.9218C129.127 71.0325 128.717 71.1431 128.297 71.2649C123.948 72.4932 119.898 74.1863 115.991 75.813C110.469 78.1147 105.689 80.1065 101.683 80.1065C95.6189 80.1065 92.111 75.1822 90.3294 64.1495C87.7843 48.4801 88.8687 32.2022 90.086 19.7751C90.7721 12.5601 91.9782 5.99806 93.7045 0.0224609Z" fill="white"/>
<path opacity="0.6" d="M83.7782 309.691C83.0368 309.016 82.3729 308.695 81.7532 308.695C80.204 308.695 79.1195 310.665 77.4817 313.642C75.7776 316.729 73.4537 320.956 69.4257 325.239L68.2417 326.489C63.6272 331.38 61.5136 333.616 62.0337 334.822C62.2661 335.364 62.9854 335.607 64.3465 335.607C65.5084 335.607 67.2126 335.441 70.0565 335.043C71.2295 334.877 72.4246 334.8 73.6087 334.8C83.2028 334.8 91.2035 340.178 97.0463 344.106C100.466 346.408 103.166 348.223 105.102 348.223C105.91 348.223 106.574 347.902 107.072 347.26C113.203 339.403 91.7678 316.939 83.7782 309.691ZM106.64 346.928C106.253 347.437 105.744 347.68 105.102 347.68C103.332 347.68 100.698 345.91 97.3561 343.652C91.458 339.68 83.3799 334.246 73.6087 334.246C72.4025 334.246 71.1742 334.335 69.979 334.501C67.1683 334.899 65.4752 335.065 64.3465 335.065C63.2842 335.065 62.6755 334.91 62.5427 334.611C62.1665 333.748 64.7449 331.015 68.6511 326.876L69.8352 325.626C73.9074 321.299 76.2645 317.028 77.9686 313.918C79.5179 311.107 80.5359 309.259 81.7642 309.259C82.2401 309.259 82.7823 309.536 83.4131 310.112C93.3281 319.108 112.074 339.945 106.64 346.928Z" fill="white"/>
<path opacity="0.6" d="M83.9334 318.92C80.0603 318.92 75.0696 325.028 75.0475 327.928C75.0364 329.112 75.7778 329.809 77.0726 329.831C82.7826 329.931 88.8135 333.549 93.2177 336.194C95.8293 337.754 97.7105 338.894 98.8281 338.894C99.1822 338.894 99.47 338.783 99.6692 338.562C99.9237 338.285 100.023 337.865 99.979 337.278C99.5696 331.956 89.4664 321.299 85.372 319.252C84.9294 319.031 84.4535 318.92 83.9334 318.92ZM99.2044 337.334C99.2376 337.798 99.1491 337.975 99.0937 338.031C99.0716 338.053 99.0163 338.119 98.8171 338.119C97.9097 338.119 95.9178 336.924 93.605 335.53C89.1233 332.841 82.9928 329.167 77.0836 329.067C76.2094 329.056 75.811 328.702 75.8221 327.939C75.8442 325.349 80.4809 319.695 83.9334 319.695C84.3318 319.695 84.697 319.772 85.0179 319.938C89.4332 322.151 98.8392 332.509 99.2044 337.334Z" fill="white"/>
<path opacity="0.6" d="M70.2453 218.551C71.197 218.551 71.9605 217.201 72.7019 214.18C75.4795 202.882 84.6531 187.932 98.906 179.987C113.325 171.942 122.93 169.85 128.098 168.733C130.665 168.179 131.949 167.892 132.259 167.217C132.38 166.962 132.336 166.652 132.148 166.298C131.152 164.483 113.292 154.491 87.6077 152.41L86.5233 152.322C84.2105 152.134 82.2076 151.968 80.2931 151.968C73.5872 151.968 68.187 153.838 55.5719 164.494C53.58 166.176 51.5439 167.737 49.5742 169.253C43.4768 173.934 38.2094 177.962 38.5525 182.554C38.8181 186.073 42.3038 189.57 49.5188 193.542C57.5084 197.947 62.3774 206.689 65.5976 212.465C67.6227 216.128 68.9727 218.551 70.2453 218.551ZM49.6516 193.255C42.6358 189.393 39.1058 185.885 38.8513 182.532C38.5193 178.128 43.7203 174.144 49.7512 169.529C51.7209 168.013 53.7681 166.453 55.76 164.76C68.2866 154.17 73.6425 152.311 80.26 152.311C82.1633 152.311 84.1552 152.477 86.4679 152.665L87.5524 152.753C112.65 154.779 130.887 164.738 131.827 166.464C132.015 166.818 131.982 166.984 131.927 167.084C131.683 167.604 130.3 167.914 127.998 168.412C122.819 169.54 113.181 171.632 98.7179 179.699C84.3875 187.7 75.1475 202.749 72.3589 214.114C71.6728 216.88 70.9757 218.231 70.2232 218.231C69.1387 218.231 67.6891 215.619 65.8411 212.321C62.6319 206.49 57.7297 197.703 49.6516 193.255Z" fill="white"/>
<path opacity="0.6" d="M72.3358 237.553C73.2985 237.553 73.9625 236.402 74.4273 233.923C77.3044 218.685 83.5345 197.107 104.35 185.598C110.779 182.035 118.049 179.224 126.559 176.978C128.274 176.524 130.1 175.296 131.882 174.101C134.172 172.551 136.551 170.958 138.742 170.958C138.997 170.958 139.251 170.98 139.484 171.024C140.712 171.246 141.631 171.954 142.516 172.64C143.512 173.415 144.452 174.145 145.758 174.145C146.245 174.145 146.754 174.045 147.296 173.824C148.226 173.459 148.713 172.739 149.178 172.042C149.841 171.057 150.461 170.128 152.342 170.294C154.213 170.449 155.22 171.876 156.282 173.381C157.023 174.433 157.798 175.528 158.893 176.137C159.69 176.579 161.129 177.055 162.401 177.055C163.287 177.055 163.917 176.823 164.271 176.358C164.603 175.915 164.67 175.285 164.449 174.499C163.718 171.887 158.13 169.453 154.423 167.837C153.327 167.361 152.387 166.952 151.778 166.631C146.267 163.71 140.767 161.242 136.12 159.206C116.511 150.63 98.6284 145.396 81.4652 143.205C79.5287 142.961 77.8577 142.839 76.3417 142.839C67.8873 142.839 61.3363 146.535 48.3006 158.664C45.1026 161.64 41.8049 164.197 38.629 166.664C31.5026 172.197 25.87 176.568 26.0028 182.068C26.1134 186.406 29.8759 191.031 37.8655 196.62C50.7241 205.616 59.2559 219.283 64.9106 228.324C68.3631 233.879 70.6649 237.553 72.3358 237.553ZM38.0315 196.321C30.1415 190.799 26.4122 186.251 26.3126 182.024C26.1799 176.69 31.7571 172.363 38.8171 166.886C42.0041 164.407 45.3018 161.851 48.5109 158.863C61.4801 146.801 67.9758 143.127 76.3306 143.127C77.8356 143.127 79.4955 143.249 81.4099 143.492C98.5399 145.672 116.389 150.906 135.965 159.471C140.613 161.508 146.101 163.975 151.601 166.886C152.221 167.218 153.172 167.627 154.268 168.103C157.909 169.685 163.419 172.087 164.105 174.543C164.294 175.229 164.26 175.76 163.984 176.115C163.63 176.579 162.91 176.679 162.379 176.679C161.228 176.679 159.823 176.236 159.037 175.794C158.008 175.229 157.267 174.167 156.536 173.138C155.474 171.633 154.379 170.084 152.353 169.907C150.273 169.718 149.576 170.792 148.89 171.81C148.425 172.496 147.993 173.138 147.164 173.47C146.655 173.669 146.201 173.769 145.747 173.769C144.563 173.769 143.656 173.071 142.704 172.341C141.786 171.633 140.834 170.891 139.528 170.67C139.274 170.626 138.997 170.604 138.731 170.604C136.441 170.604 134.028 172.23 131.693 173.802C129.868 175.03 128.13 176.203 126.481 176.635C117.938 178.881 110.657 181.714 104.195 185.288C83.2579 196.863 76.9946 218.541 74.1063 233.846C73.6748 236.103 73.0994 237.21 72.3358 237.21C70.8419 237.21 68.4627 233.392 65.1651 228.113C59.4993 219.061 50.9343 205.362 38.0315 196.321Z" fill="white"/>
<path opacity="0.6" d="M113.213 376.396C120.783 375.533 127.909 370.332 131.384 363.15C134.549 356.588 136.264 345.456 126.437 329.698C122.221 322.926 117.618 316.098 113.169 309.492C100.443 290.602 88.4258 272.753 83.4572 254.848C77.8468 234.598 82.3506 217.888 97.6437 202.274C110.89 188.752 128.385 180.994 145.659 180.994C158.639 180.994 170.225 185.565 178.27 193.853C187.112 202.96 191.538 216.295 191.051 232.396C190.941 236.136 190.763 239.998 190.575 244.092C189.911 258.633 189.148 275.11 191.494 288.821C194.194 304.59 200.601 314.328 211.069 318.599C216.68 320.89 221.991 322.041 226.872 322.041C235.735 322.041 243.282 318.168 248.694 310.853C257.889 298.404 260.091 277.091 254.182 257.814C241.49 216.45 210.97 191.761 165.854 165.314C131.583 145.229 102.634 139.032 76.4636 135.325C74.516 135.049 72.6569 134.905 70.9417 134.905C60.0085 134.905 54.8076 140.471 48.2233 147.52C45.6892 150.231 43.0777 153.02 39.8243 155.886C36.084 159.172 32.8306 161.175 29.9535 162.946C25.339 165.779 21.3663 168.224 16.9732 174.775C8.27537 187.778 19.9167 195.756 32.2331 204.2C38.7398 208.659 45.479 213.274 49.0865 218.74C71.7495 253.078 62.609 289.706 46.486 312.535C41.8826 319.064 35.1545 325.228 28.028 331.745C19.3192 339.724 10.3115 347.968 5.15478 357.186C2.94159 361.148 2.31084 363.837 3.22931 365.408C3.90433 366.559 5.39823 367.112 7.7774 367.112C12.0267 367.112 18.7769 365.353 26.6005 363.305C37.5669 360.45 51.2111 356.887 63.273 356.887C69.658 356.887 75.1357 357.905 79.5509 359.908C83.9441 361.911 87.6623 364.799 91.2587 367.599C97.179 372.202 102.756 376.54 110.657 376.54C111.509 376.551 112.361 376.496 113.213 376.396ZM79.7059 359.609C75.191 357.551 69.824 356.555 63.2951 356.555C51.2001 356.555 37.5226 360.118 26.5452 362.984C18.7437 365.021 12.0156 366.769 7.79953 366.78C5.54208 366.78 4.14778 366.271 3.52809 365.231C2.67601 363.77 3.30676 361.192 5.45355 357.341C10.5771 348.178 19.5626 339.945 28.2604 331.989C35.3979 325.449 42.1371 319.285 46.7626 312.723C56.2129 299.344 61.7901 284.084 62.8857 268.592C64.1472 250.887 59.5991 234.044 49.3631 218.552C45.7224 213.041 38.9612 208.405 32.4212 203.923C20.2376 195.568 8.72907 187.689 17.2498 174.952C21.5877 168.457 25.5493 166.033 30.1195 163.222C33.0077 161.452 36.2721 159.438 40.0346 156.129C43.299 153.263 45.9216 150.452 48.4557 147.741C54.9846 140.759 60.1524 135.237 70.9306 135.237C72.6237 135.237 74.4717 135.381 76.4082 135.646C102.546 139.353 131.461 145.539 165.677 165.591C210.726 191.983 241.191 216.638 253.85 257.891C259.737 277.08 257.557 298.271 248.417 310.643C243.072 317.869 235.625 321.698 226.86 321.698C222.025 321.698 216.757 320.547 211.191 318.278C200.833 314.051 194.493 304.402 191.815 288.754C189.469 275.077 190.232 258.611 190.896 244.092C191.084 239.998 191.261 236.136 191.372 232.396C191.859 216.195 187.41 202.783 178.502 193.609C170.391 185.255 158.728 180.651 145.659 180.651C128.296 180.651 110.713 188.442 97.4003 202.031C89.2779 210.33 84.265 218.884 82.0629 228.202C80.1042 236.523 80.4473 245.254 83.1253 254.926C88.1049 272.886 100.134 290.746 112.882 309.669C117.33 316.275 121.933 323.103 126.15 329.864C135.899 345.5 134.206 356.511 131.074 362.996C127.655 370.078 120.628 375.212 113.169 376.053C112.328 376.153 111.487 376.197 110.668 376.197C102.889 376.197 97.3449 371.881 91.48 367.322C87.8725 364.534 84.1322 361.623 79.7059 359.609Z" fill="white"/>
<path opacity="0.6" d="M120.473 362.675C123.373 360.561 125.077 357.606 125.519 353.899C126.836 343.021 117.187 327.142 108.522 316.862C97.7108 304.025 86.9769 290.326 81.7206 277.069C81.4661 276.416 81.0677 274.568 80.5697 272.233C78.8766 264.354 76.0548 251.174 71.9604 251.174C71.5842 251.174 71.1969 251.285 70.8206 251.517C69.1165 252.524 68.6185 254.516 69.2825 257.581C69.8247 260.093 71.0751 262.993 72.1817 265.549C73.3547 268.249 74.3617 270.584 74.3396 271.912C74.2953 275.331 72.7018 276.836 71.1526 278.297C69.9464 279.437 68.7071 280.61 68.2534 282.657C67.6779 285.291 68.7624 287.271 69.8136 289.186C70.7874 290.956 71.7834 292.782 71.4735 295.139C70.887 299.466 57.1874 315.058 45.1145 328.824C35.1109 340.211 26.4795 350.048 26.6234 351.93C26.6344 352.073 26.6897 352.184 26.7783 352.261C27.6082 352.948 29.1021 353.28 31.3706 353.28C34.9449 353.28 39.9135 352.483 45.6789 351.553C52.6615 350.436 60.5736 349.163 67.4455 349.163C72.8125 349.163 76.8294 349.927 79.7176 351.498C81.289 352.35 83.0485 353.368 84.8965 354.453C93.1517 359.244 103.421 365.22 112.119 365.22C115.361 365.209 118.172 364.357 120.473 362.675ZM79.8947 351.199C76.9512 349.606 72.8789 348.82 67.4677 348.82C60.5736 348.82 52.6504 350.093 45.6457 351.21C39.9025 352.129 34.9339 352.925 31.3928 352.925C29.2128 352.925 27.7742 352.616 27.0107 351.985C26.9996 351.974 26.9775 351.952 26.9664 351.885C26.8336 350.137 35.8413 339.89 45.369 329.023C57.4862 315.224 71.208 299.588 71.8166 295.172C72.1486 292.705 71.1194 290.835 70.1235 289.02C69.0501 287.072 68.0431 285.235 68.5964 282.723C69.0169 280.776 70.1788 279.691 71.3961 278.54C72.9896 277.035 74.6384 275.475 74.6826 271.923C74.7048 270.529 73.6757 268.16 72.4916 265.416C71.3961 262.871 70.1456 259.994 69.6034 257.515C68.9726 254.605 69.4263 252.735 70.9866 251.805C71.3075 251.617 71.6395 251.517 71.9604 251.517C75.7892 251.517 78.6885 265.04 80.2377 272.31C80.7578 274.756 81.1341 276.515 81.4107 277.201C86.6781 290.503 97.4342 304.224 108.268 317.083C116.888 327.319 126.493 343.088 125.188 353.866C124.745 357.485 123.096 360.362 120.274 362.42C118.028 364.058 115.295 364.877 112.141 364.877C103.543 364.877 93.3066 358.934 85.0846 354.154C83.2366 353.069 81.4771 352.051 79.8947 351.199Z" fill="white"/>
<path opacity="0.6" d="M116.687 348.787C117.672 339.669 107.912 325.372 103.032 319.872C94.6109 310.389 88.7349 302.3 84.8508 296.955C80.9998 291.654 78.8752 288.722 77.503 288.722C76.5624 288.722 76.0423 289.939 75.7214 292.938C73.309 315.468 58.7352 327.674 50.0263 334.955C46.2086 338.153 43.6966 340.256 43.586 341.993C43.5528 342.491 43.7298 342.956 44.1171 343.354C44.9139 344.195 46.1643 344.594 48.0787 344.594C50.2255 344.594 52.9367 344.096 56.0794 343.52C60.1517 342.768 64.7772 341.927 69.5023 341.927C75.9427 341.927 81.1326 343.531 85.3819 346.829C91.3686 351.476 100.221 356.445 107.16 356.445C109.661 356.445 111.796 355.814 113.523 354.553C115.348 353.236 116.411 351.288 116.687 348.787ZM107.149 356.124C100.299 356.124 91.5125 351.2 85.5811 346.585C81.2654 343.232 76.0091 341.606 69.5023 341.606C64.744 341.606 60.1074 342.458 56.013 343.21C52.8924 343.786 50.1923 344.273 48.0787 344.273C46.2639 344.273 45.0799 343.907 44.3606 343.133C44.0397 342.79 43.8958 342.425 43.9179 342.015C44.0175 340.422 46.6291 338.231 50.2366 335.21C58.9787 327.884 73.6189 315.634 76.0423 292.971C76.33 290.26 76.7837 289.054 77.4919 289.054C78.6981 289.054 80.9113 292.097 84.5741 297.143C88.4583 302.499 94.3454 310.588 102.767 320.082C107.613 325.549 117.318 339.736 116.344 348.743C116.079 351.145 115.061 353.015 113.312 354.287C111.652 355.516 109.583 356.124 107.149 356.124Z" fill="white"/>
<path opacity="0.6" d="M211.236 257.737C210.096 275.044 215.064 286.962 220.099 292.329C222.401 294.785 224.924 296.146 227.215 296.146C230.435 296.146 232.858 293.612 234.031 289.009C241.589 259.385 215.85 228.157 212.696 225.546C211.789 224.793 211.158 224.694 210.749 225.148C210.007 225.955 210.24 228.6 210.66 233.392C211.147 239.068 211.9 247.645 211.236 257.737ZM211.158 225.524C211.213 225.457 211.269 225.435 211.357 225.435C211.512 225.435 211.811 225.524 212.353 225.977C215.485 228.567 241.003 259.518 233.511 288.876C232.405 293.203 230.18 295.593 227.226 295.593C225.101 295.593 222.711 294.298 220.52 291.952C215.562 286.663 210.671 274.9 211.8 257.77C212.464 247.633 211.723 239.035 211.225 233.347C210.848 229.176 210.583 226.155 211.158 225.524Z" fill="white"/>
<path opacity="0.6" d="M346.196 63.1304C337.542 63.1304 327.959 64.7681 317.801 66.4944C305.672 68.5637 293.135 70.6995 279.468 70.6995C278.461 70.6995 277.465 70.6884 276.525 70.6663C275.706 70.6441 274.909 70.622 274.112 70.5999C272.043 70.5445 270.096 70.4892 268.214 70.4892C256.44 70.4892 249.148 72.8905 244.345 85.5389C241.313 93.5395 237.861 102.603 229.605 108.456C227.27 110.116 224.936 111.522 222.866 112.772C218.086 115.66 214.312 117.94 214.168 121.094C214.036 123.993 216.968 127.479 223.663 132.392C230.092 137.106 235.371 139.397 239.819 139.397C240.218 139.397 240.627 139.375 241.014 139.341C247.477 138.744 251.815 133.399 257.303 126.638C259.793 123.561 262.626 120.087 265.946 116.767C280.32 102.392 297.982 91.9128 317.015 86.4573C325.049 84.1556 332.983 82.9826 340.608 82.9826C359.442 82.9826 373.96 89.7882 385.978 97.6671V97.2687C373.96 89.423 359.431 82.6507 340.608 82.6507C332.95 82.6507 324.983 83.8236 316.927 86.1364C297.838 91.6141 280.121 102.127 265.713 116.535C262.383 119.865 259.55 123.351 257.049 126.427C251.604 133.122 247.311 138.423 240.992 139.009C240.605 139.043 240.218 139.065 239.83 139.065C235.459 139.065 230.236 136.796 223.862 132.126C217.267 127.28 214.379 123.882 214.5 121.116C214.633 118.139 218.34 115.904 223.043 113.06C225.113 111.809 227.459 110.393 229.805 108.733C238.148 102.824 241.612 93.7055 244.666 85.6606C249.402 73.1893 256.595 70.8212 268.225 70.8212C270.107 70.8212 272.054 70.8765 274.112 70.9318C274.898 70.954 275.706 70.9761 276.525 70.9982C277.477 71.0204 278.461 71.0314 279.479 71.0314C293.168 71.0314 305.728 68.8847 317.867 66.8153C328.004 65.089 337.587 63.4513 346.207 63.4513C351.209 63.4513 355.569 64.0046 359.563 65.1444C368.14 67.5899 376.926 71.6069 385.989 76.2988V75.9226C376.959 71.2638 368.206 67.269 359.652 64.8235C355.624 63.6947 351.22 63.1304 346.196 63.1304Z" fill="white"/>
<path opacity="0.6" d="M202.671 256.741C201.387 273.528 204.707 287.117 212.01 295.007C215.828 299.134 220.52 301.403 225.223 301.403C231.929 301.403 237.285 296.744 238.889 289.54C243.548 268.471 236.333 249.526 229.472 237.331C221.394 223.012 211.07 212.876 206.09 209.556C204.275 208.35 202.992 207.597 202.217 207.597C201.929 207.597 201.708 207.697 201.542 207.885C200.9 208.604 201.166 210.662 201.686 214.735C202.593 221.95 204.308 235.395 202.671 256.741ZM201.774 208.095C201.874 207.973 202.018 207.918 202.206 207.918C202.892 207.918 204.187 208.682 205.902 209.821C217.134 217.313 246.968 251.44 238.557 289.452C236.997 296.501 231.763 301.06 225.223 301.06C220.609 301.06 216.005 298.825 212.254 294.774C205.017 286.962 201.73 273.462 203.003 256.763C204.64 235.384 202.925 221.916 201.996 214.679C201.531 210.961 201.243 208.704 201.774 208.095Z" fill="white"/>
<path opacity="0.6" d="M196.308 257.825C195.036 278.717 199.03 295.228 207.573 304.302C211.989 308.994 217.345 311.473 223.077 311.473C234.032 311.473 243.305 302.609 246.171 289.418C250.387 269.964 246.758 250.809 235.393 232.484C223.874 213.926 207.939 201.931 199.462 196.42C195.146 193.62 193.298 192.448 192.59 193.3C192.004 194.008 192.391 196.022 193.143 200.028C194.781 208.737 198.201 226.807 196.308 257.825ZM192.834 193.543C192.922 193.432 193.044 193.388 193.232 193.388C194.128 193.388 196.065 194.65 199.274 196.73C227.514 215.055 254.57 249.028 245.828 289.363C243.006 302.398 233.855 311.152 223.066 311.152C217.433 311.152 212.155 308.706 207.806 304.08C199.329 295.073 195.368 278.651 196.629 257.847C198.521 226.785 195.102 208.692 193.453 199.994C192.767 196.332 192.358 194.118 192.834 193.543Z" fill="white"/>
<path opacity="0.6" d="M68.9607 188.397C72.0923 188.397 74.3387 185.376 76.74 180.839C80.934 172.915 89.6982 169.075 94.4012 167.017C96.7804 165.977 97.6767 165.59 97.5661 164.926C97.4665 164.372 96.8578 164.14 93.6045 163.919C83.8 163.255 61.801 172.605 59.2669 179.643C58.6804 181.27 59.112 182.753 60.5284 183.915C64.2908 187.058 66.8139 188.397 68.9607 188.397ZM59.9862 179.92C62.299 173.491 82.7488 164.671 92.5421 164.671C92.8852 164.671 93.2171 164.682 93.5381 164.704C95.4525 164.837 96.3045 164.97 96.6476 165.081C96.2271 165.368 95.1426 165.844 94.0803 166.309C89.2887 168.4 80.3696 172.307 76.0428 180.473C73.3206 185.608 71.3288 187.611 68.9496 187.611C67.013 187.611 64.6339 186.327 61.0043 183.328C59.8423 182.366 59.5104 181.259 59.9862 179.92Z" fill="white"/>
<path opacity="0.6" d="M78.5881 187.999C86.124 174.266 99.9011 169.475 111.056 166.83C112.129 166.575 112.229 166.022 112.195 165.723C111.93 163.488 101.484 159.206 85.8916 159.206C84.1322 159.206 82.3284 159.261 80.5468 159.372C73.4203 159.803 56.6223 169.74 50.5913 177.099C49.02 179.014 48.3118 180.596 48.4777 181.824C48.8983 184.878 51.6094 186.229 54.7632 187.8C58.094 189.46 61.8675 191.341 63.7155 195.723C64.7889 198.279 66.1943 199.574 67.8984 199.574C70.7756 199.563 74.372 195.679 78.5881 187.999ZM64.2135 195.502C62.2991 190.932 58.426 188.995 55.0067 187.291C51.9967 185.797 49.3962 184.502 49.02 181.736C48.8761 180.685 49.5622 179.202 51.0119 177.442C56.9764 170.172 73.5642 160.345 80.58 159.925C82.3616 159.814 84.1432 159.759 85.8916 159.759C101.218 159.759 111.432 163.997 111.642 165.79C111.675 166.077 111.21 166.232 110.923 166.299C99.6576 168.966 85.7478 173.813 78.1012 187.734C71.7494 199.297 66.98 202.097 64.2135 195.502Z" fill="white"/>
<path opacity="0.6" d="M224.182 282.889C224.193 282.889 224.193 282.889 224.182 282.889C224.769 282.889 225.278 282.479 225.709 281.683C227.867 277.644 227.823 263.656 222.102 255.147C221.361 254.04 220.287 254.184 219.468 255.578C217.322 259.274 216.414 271.026 222.268 281.284C222.888 282.358 223.529 282.889 224.182 282.889ZM220.154 255.977C220.442 255.49 220.741 255.191 220.973 255.191C221.172 255.191 221.372 255.434 221.471 255.589C226.938 263.734 227.06 277.533 225.034 281.329C224.758 281.838 224.459 282.125 224.193 282.125C223.85 282.125 223.397 281.683 222.954 280.908C217.333 271.048 218.14 259.44 220.154 255.977Z" fill="white"/>
<path opacity="0.6" d="M296.166 316.85C296.952 317.99 298.889 318.477 302.618 318.477C304.953 318.477 307.73 318.289 310.95 318.078C314.934 317.813 319.46 317.514 324.13 317.514C338.925 317.514 348.907 320.657 355.557 327.429C361.743 332.188 365.151 339.945 368.161 346.795C371.824 355.116 374.978 362.298 381.96 362.298C382.702 362.298 383.488 362.209 384.284 362.043C384.816 361.933 385.38 361.789 385.966 361.612V361.036C385.347 361.236 384.738 361.391 384.174 361.512C383.41 361.667 382.658 361.756 381.96 361.756C375.343 361.756 372.256 354.729 368.67 346.584C365.627 339.679 362.186 331.856 355.922 327.031C349.183 320.17 339.08 316.972 324.13 316.972C319.438 316.972 314.912 317.271 310.906 317.536C307.697 317.746 304.92 317.935 302.607 317.935C299.176 317.935 297.273 317.492 296.62 316.551C296.266 316.031 296.255 315.334 296.598 314.405C303.636 295.581 309.534 271.757 308.959 264.42C307.963 251.572 302.319 239.433 296.852 227.692C290.169 213.34 283.861 199.784 287.867 188.474C293.444 172.761 318.896 145.483 332.673 143.602C333.337 143.514 334.078 143.469 334.875 143.469C345.609 143.469 364.521 151.16 385.955 163.864V163.222C364.543 150.563 345.642 142.916 334.875 142.916C334.045 142.916 333.282 142.96 332.595 143.06C318.663 144.963 292.957 172.462 287.336 188.297C283.252 199.817 289.604 213.472 296.332 227.935C301.777 239.632 307.398 251.716 308.394 264.464C308.892 270.893 303.614 294.021 296.067 314.205C295.668 315.301 295.702 316.175 296.166 316.85Z" fill="white"/>
<path opacity="0.6" d="M134.803 31.6821C136.286 31.6821 138.001 31.4607 140.059 31.007C142.095 30.5533 144.032 30.1218 145.769 29.8894C148.735 29.491 151.601 29.325 154.146 29.1812C157.056 29.0152 159.668 28.2295 162.136 26.7909C172.438 20.7711 176.743 8.44363 178.115 3.43076C178.447 2.22458 178.779 1.10692 179.1 0.0224609H178.757C178.447 1.07372 178.126 2.16925 177.805 3.34224C176.444 8.3219 172.172 20.5387 161.981 26.5032C159.557 27.9196 157.001 28.6832 154.124 28.8492C151.59 28.993 148.713 29.159 145.736 29.5685C143.976 29.8009 142.04 30.2324 139.993 30.6861C137.968 31.1398 136.274 31.3501 134.814 31.3501C132.368 31.3501 130.664 30.7193 129.602 29.4246C128.03 27.5102 127.809 24.0908 128.894 18.6575L129.071 17.7722C130.542 10.2916 133.088 4.52629 137.082 0.0224609H136.64C132.711 4.53736 130.21 10.2806 128.739 17.7058L128.562 18.5911C127.455 24.1351 127.698 27.643 129.336 29.6349C130.465 31.0181 132.246 31.6821 134.803 31.6821Z" fill="white"/>
<path opacity="0.6" d="M346.196 70.7666C338.195 70.7666 328.911 72.349 319.084 74.02C306.646 76.1446 293.776 78.3357 279.468 78.3357C278.417 78.3357 277.377 78.3246 276.348 78.3025L273.913 78.2361C271.899 78.1808 270.007 78.1254 268.225 78.1254C252.722 78.1254 251.958 86.6462 251.139 95.6649C250.697 100.611 250.232 105.735 247.51 110.084C246.536 111.633 243.924 113.603 241.147 115.683C235.249 120.11 228.565 125.133 231.774 129.836C233.157 131.862 234.817 132.88 236.709 132.88C237.75 132.88 238.878 132.57 240.051 131.961C245.286 129.261 250.874 121.271 255.367 114.853C257.912 111.213 260.114 108.07 261.32 107.339C262.582 106.587 263.998 106.487 265.204 106.487C265.669 106.487 266.145 106.51 266.621 106.521C267.108 106.543 267.594 106.554 268.07 106.554C269.896 106.554 271.822 106.332 273.559 104.75C275.65 102.847 275.916 100.368 276.171 97.9777C276.403 95.8309 276.613 93.8058 278.041 92.0906C282.356 86.9339 297.495 83.3264 307.509 80.9472C310.453 80.2501 312.998 79.6415 314.901 79.0992C323.61 76.5983 332.264 75.3368 340.596 75.3368C359.099 75.3368 373.894 81.4009 385.967 88.6602V88.0073C373.883 80.7923 359.087 74.7835 340.596 74.7835C332.208 74.7835 323.511 76.0561 314.746 78.5681C312.865 79.1103 310.32 79.7189 307.376 80.4161C296.687 82.9612 282.047 86.447 277.62 91.7476C276.082 93.5845 275.85 95.7977 275.617 97.9334C275.363 100.324 275.119 102.581 273.183 104.352C271.578 105.812 269.774 106.012 268.07 106.012C267.594 106.012 267.108 105.989 266.632 105.978C266.156 105.956 265.669 105.945 265.193 105.945C263.909 105.945 262.405 106.056 261.021 106.875C259.715 107.66 257.591 110.692 254.891 114.543C250.664 120.574 244.887 128.841 239.775 131.474C236.654 133.079 234.197 132.448 232.195 129.527C229.284 125.266 235.747 120.408 241.446 116.137C244.378 113.935 246.912 112.031 247.941 110.394C250.741 105.934 251.206 100.744 251.66 95.7313C252.478 86.5909 253.198 78.6898 268.192 78.6898C269.974 78.6898 271.866 78.7451 273.869 78.8005L276.303 78.8669C277.344 78.889 278.384 78.9001 279.435 78.9001C293.799 78.9001 306.679 76.6979 319.151 74.5733C328.955 72.9023 338.206 71.3199 346.162 71.3199C350.423 71.3199 354.086 71.7736 357.361 72.7142C366.402 75.2926 375.952 79.8849 385.944 85.1855V84.5658C376.018 79.3095 366.524 74.7614 357.516 72.1941C354.218 71.2314 350.5 70.7666 346.196 70.7666Z" fill="white"/>
<path opacity="0.6" d="M136.939 20.0072C137.791 21.656 139.628 22.497 142.394 22.497C143.114 22.497 143.91 22.4417 144.751 22.32C147.994 21.8773 151.026 21.7113 153.715 21.5564C154.512 21.5122 155.253 21.3904 155.972 21.1912C156.769 20.9589 157.533 20.6379 158.274 20.2064C164.261 16.7095 171.332 6.40717 171.564 0.0332031H171.011C170.767 6.15266 163.729 16.3776 157.997 19.7305C157.289 20.14 156.581 20.4498 155.817 20.6601C155.131 20.8482 154.434 20.9699 153.648 21.0142C150.97 21.1691 147.927 21.3462 144.663 21.7888C140.834 22.3089 138.366 21.6117 137.415 19.7637C136.12 17.2628 137.658 12.427 141.421 7.15966C143.468 4.29358 146.223 1.96974 149.875 0.044269H148.713C145.438 1.91441 142.892 4.13866 140.967 6.83874C137.038 12.3385 135.534 17.2739 136.939 20.0072Z" fill="white"/>
<path opacity="0.6" d="M312.876 302.431C314.935 305.386 319.284 305.718 325.292 306.183C325.945 306.238 326.62 306.282 327.306 306.338C329.21 306.493 331.202 306.559 333.304 306.636C343.086 306.968 354.175 307.356 364.189 316.474L364.311 316.585C369.866 321.443 373.164 330.008 376.085 337.566C379.018 345.179 381.563 351.752 385.591 351.752C385.712 351.752 385.845 351.73 385.967 351.719V351.387C385.845 351.398 385.712 351.431 385.591 351.431C381.784 351.431 379.294 344.958 376.395 337.455C373.462 329.864 370.143 321.255 364.532 316.341L364.41 316.231C354.307 307.035 343.153 306.648 333.315 306.316C331.213 306.238 329.221 306.172 327.329 306.017C326.642 305.961 325.967 305.906 325.315 305.862C319.394 305.408 315.112 305.076 313.142 302.254C311.283 299.576 311.538 294.552 313.994 285.987C316.263 278.053 317.115 270.805 316.573 263.833C315.466 249.614 309.524 236.844 303.78 224.483C297.783 211.58 292.106 199.397 295.071 191.031C300.007 177.099 323.843 152.51 333.714 151.171C333.935 151.138 334.311 151.105 334.887 151.105C343.131 151.105 361.788 157.966 385.967 172.783V172.396C361.799 157.623 343.153 150.773 334.887 150.773C334.3 150.773 333.902 150.806 333.669 150.839C323.721 152.2 299.719 176.922 294.762 190.92C291.752 199.419 297.451 211.658 303.482 224.627C309.214 236.954 315.145 249.691 316.241 263.856C316.783 270.794 315.942 278.009 313.673 285.899C311.172 294.674 310.929 299.632 312.876 302.431Z" fill="white"/>
<path opacity="0.6" d="M111.1 402.501C127.577 400.619 147.197 381.044 152.453 366.083C161.583 340.111 145.349 319.196 129.647 298.968C114.497 279.448 100.178 261.012 107.138 238.559C113.203 219.006 132.789 208.449 148.138 208.449C156.415 208.449 163.564 211.381 168.289 216.715C173.899 223.045 176.101 232.661 174.663 244.524C169.716 285.279 168.244 329.864 213.681 343.01C218.893 344.515 224.039 345.279 228.985 345.279C248.118 345.279 260.324 334.324 267.196 325.128C280.375 307.5 284.957 281.13 278.583 259.518C273.183 241.193 262.548 223.41 246.093 205.173C221.626 178.062 188.296 154.757 144.209 133.909L142.306 133.001C123.759 124.226 104.582 115.152 84.3869 110.15C83.1918 109.851 81.8639 109.497 80.4474 109.121C74.2063 107.461 66.449 105.403 59.7874 105.403C57.1205 105.403 54.8077 105.746 52.9265 106.421C50.0494 107.45 48.4337 109.42 46.8624 111.323C45.6894 112.74 44.4832 114.211 42.7569 115.263C41.6393 115.949 39.4482 116.79 37.1465 117.686C33.4062 119.125 29.5442 120.618 28.327 122.057C25.9699 124.824 26.6228 126.483 27.2425 128.099C27.6962 129.25 28.1167 130.345 27.5634 131.972L27.1318 133.256C23.7789 143.115 23.7789 143.115 16.0548 145.351C14.5609 145.782 12.7019 146.325 10.4998 147.022C4.13686 149.047 1.5253 152.167 -0.99773 155.188C-2.93427 157.512 -4.77121 159.703 -8.23484 161.474C-8.32337 161.463 -8.43403 161.463 -8.54469 161.463C-12.5284 161.463 -42.7384 163.455 -45.0622 170.88C-45.6819 172.883 -44.3319 175.052 -41.0232 177.342C-36.8845 180.208 -33.7529 180.54 -31.7499 180.54C-30.7761 180.54 -29.8909 180.452 -29.0388 180.374C-28.3084 180.308 -27.6223 180.242 -26.9695 180.242C-24.5349 180.242 -22.0783 180.928 -18.7143 189.238C-17.8843 191.285 -17.2425 192.956 -16.7113 194.351C-14.0998 201.189 -14.0113 201.278 -7.38277 204.111C-5.73395 204.808 -3.68675 205.682 -1.08626 206.888C7.45663 210.828 9.20504 215.298 11.4182 220.964C12.5912 223.952 13.9191 227.349 16.4311 231.167C19.1201 235.25 22.2739 238.537 25.3281 241.713C30.7393 247.345 35.8518 252.668 37.4785 261.554C40.3003 276.947 31.9455 291.642 22.4952 305.231C17.9139 311.826 8.49683 319.495 -1.47357 327.618C-18.4044 341.406 -37.5927 357.042 -37.6591 371.516C-37.7034 379.782 -35.5787 386.123 -31.3516 390.372C-26.7481 394.998 -19.7545 397.244 -9.96114 397.244C4.23644 397.244 21.6763 392.453 37.069 388.237C49.1862 384.917 59.6546 382.04 66.3384 382.04C67.8544 382.04 69.1381 382.195 70.1451 382.493C76.5965 384.408 81.709 388.502 86.6665 392.464C93.2286 397.72 99.4366 402.678 108.3 402.678C109.241 402.667 110.171 402.611 111.1 402.501ZM70.3996 381.741C69.293 381.409 67.9761 381.254 66.3716 381.254C59.5771 381.254 49.0645 384.142 36.892 387.473C21.5435 391.678 4.14791 396.459 -9.939 396.459C-19.511 396.459 -26.3276 394.29 -30.7761 389.819C-34.8484 385.725 -36.8956 379.572 -36.8624 371.516C-36.796 357.407 -17.7626 341.893 -0.964535 328.215C9.05012 320.06 18.5004 312.358 23.1481 305.674C32.6869 291.941 41.1302 277.08 38.2531 261.41C36.5821 252.292 31.3922 246.892 25.9035 241.171C22.8715 238.017 19.7398 234.752 17.095 230.735C14.6273 226.984 13.3105 223.642 12.1596 220.677C9.88007 214.845 8.07632 210.252 -0.743221 206.18C-3.35478 204.974 -5.41304 204.1 -7.06186 203.392C-13.458 200.658 -13.458 200.658 -15.981 194.063C-16.5122 192.669 -17.154 190.987 -17.9839 188.939C-21.2041 181.005 -23.7161 179.456 -26.9584 179.456C-27.6445 179.456 -28.3527 179.522 -29.1052 179.6C-29.9351 179.677 -30.7983 179.766 -31.7389 179.766C-33.7971 179.766 -36.6521 179.423 -40.5695 176.712C-43.5683 174.642 -44.8188 172.761 -44.3098 171.123C-42.2958 164.672 -14.133 162.248 -8.53363 162.248C-8.40084 162.248 -8.31231 162.248 -8.25698 162.26L-8.16845 161.905L-8.00246 162.248C-4.32858 160.389 -2.32565 158.01 -0.400181 155.697C2.16711 152.632 4.59056 149.733 10.7432 147.774C12.9343 147.077 14.7823 146.546 16.2762 146.114C24.3211 143.791 24.4207 143.669 27.8733 133.521L28.3048 132.238C28.9466 130.345 28.4266 129.017 27.9728 127.833C27.3753 126.306 26.8662 124.99 28.9245 122.577C30.02 121.293 33.9595 119.766 37.4342 118.427C39.7802 117.52 41.9934 116.668 43.1774 115.949C45.0144 114.831 46.2648 113.315 47.471 111.843C49.0424 109.94 50.5252 108.136 53.1921 107.184C54.9958 106.543 57.2201 106.211 59.7984 106.211C66.3605 106.211 74.0624 108.258 80.2593 109.907C81.6758 110.283 83.0037 110.637 84.2099 110.936C104.328 115.915 123.472 124.978 141.985 133.732L143.888 134.639C187.875 155.432 221.128 178.681 245.529 205.715C261.906 223.864 272.485 241.547 277.852 259.761C284.16 281.152 279.634 307.245 266.587 324.685C259.815 333.737 247.797 344.526 228.996 344.526C224.127 344.526 219.059 343.774 213.914 342.28C169.063 329.311 170.535 285.08 175.448 244.634C176.92 232.55 174.652 222.724 168.886 216.228C164.017 210.728 156.658 207.707 148.16 207.707C132.535 207.707 112.594 218.452 106.419 238.371C99.337 261.2 114.442 280.665 129.06 299.488C144.63 319.55 160.742 340.299 151.745 365.872C146.555 380.623 127.234 399.933 111.034 401.781C110.126 401.881 109.23 401.936 108.356 401.936C99.7575 401.936 93.6602 397.056 87.1976 391.888C82.1737 387.838 76.9949 383.7 70.3996 381.741Z" fill="white"/>
<path opacity="0.6" d="M130.156 40.3018C133.918 40.3018 138.079 39.3833 141.742 38.5644C143.623 38.1439 145.394 37.7566 146.81 37.5574C149.488 37.1922 152.088 37.0484 154.6 36.9045C159.835 36.6057 164.781 36.318 168.71 34.0827C171.874 32.279 174.176 29.3244 175.758 25.0197C178.602 17.2957 182.11 8.62003 187.079 0.0107422H186.692C181.756 8.58683 178.27 17.2182 175.438 24.9091C173.888 29.1252 171.631 32.0355 168.532 33.795C164.67 35.986 159.768 36.2738 154.578 36.5725C152.055 36.7164 149.455 36.8713 146.766 37.2254C145.338 37.4136 143.557 37.8119 141.664 38.2324C138.013 39.0402 133.885 39.9587 130.156 39.9587C126.493 39.9587 123.904 39.0734 122.233 37.2365C118.16 32.7769 120.208 22.5963 121.303 17.1187L121.48 16.2555C122.72 9.94794 124.722 4.58097 127.544 0.0107422H127.157C124.379 4.58097 122.399 9.92581 121.159 16.2002L120.982 17.0633C119.876 22.5963 117.817 32.8765 122 37.4689C123.727 39.3722 126.393 40.3018 130.156 40.3018Z" fill="white"/>
<path opacity="0.6" d="M215.817 0.0224609H215.053C213.681 1.48316 212.497 2.82214 211.612 4.03939C199.406 20.6272 193.995 35.9424 195.068 50.8593C195.489 56.6578 194.77 60.4977 192.888 62.6002C191.693 63.9392 189.978 64.581 187.665 64.581C184.445 64.581 180.472 63.3527 176.278 62.058C172.461 60.874 168.521 59.6567 164.803 59.2473C162.003 58.9374 159.204 58.7936 156.227 58.7936C146.854 58.7936 137.935 60.2875 128.507 61.8699C126.924 62.1355 125.331 62.4011 123.726 62.6666L123.605 62.6888C120.296 63.231 116.545 63.8396 112.893 63.8396C105.988 63.8396 101.572 61.549 99.3813 56.8349C94.811 46.9973 96.0947 35.1457 97.2124 24.6995C97.3673 23.2941 97.5111 21.8998 97.655 20.5276C98.4075 12.8921 99.7243 6.09765 101.672 0.0335269H101.085C99.16 6.09765 97.8542 12.87 97.1017 20.4723C96.9689 21.8445 96.814 23.2388 96.6701 24.6441C95.5414 35.1678 94.2467 47.0969 98.8833 57.0784C101.174 62.0027 105.755 64.404 112.893 64.404C116.589 64.404 120.362 63.7843 123.693 63.2531L123.815 63.231C125.419 62.9654 127.013 62.6998 128.595 62.4343C138.001 60.8629 146.887 59.369 156.227 59.369C159.182 59.369 161.959 59.5129 164.737 59.8227C168.41 60.2211 172.328 61.4383 176.112 62.6113C180.351 63.9282 184.356 65.1675 187.665 65.1675C190.144 65.1675 191.992 64.4593 193.298 62.9986C195.279 60.7854 196.042 56.8128 195.611 50.8482C194.548 36.0752 199.926 20.8817 212.054 4.3935C213.006 3.07665 214.301 1.61595 215.817 0.0224609Z" fill="white"/>
<path opacity="0.6" d="M212.221 83.9017C208.469 86.5464 203.335 87.8411 196.518 87.8411C188.517 87.8411 179.554 86.0485 171.664 84.466C167.005 83.5365 162.612 82.6512 159.016 82.275C157.256 82.0869 152.531 81.6553 146.71 81.6553C135.932 81.6553 122.1 83.116 117.463 90.0765C115.438 93.0975 115.361 96.9041 117.22 101.375C118.094 103.477 120.351 104.617 122.531 105.724C124.258 106.598 126.039 107.505 127.035 108.844C128.208 110.438 128.905 112.673 129.569 114.842C130.466 117.719 131.384 120.696 133.475 122.455C136.076 124.635 138.92 125.653 142.45 125.653C144.895 125.653 147.396 125.155 149.809 124.68C152.199 124.204 154.667 123.717 157.057 123.717C159.348 123.717 161.339 124.171 163.154 125.1C167.547 127.369 169.407 130.423 171.188 133.366C173.523 137.217 175.725 140.847 182.984 142.551C198.178 146.103 202.35 149.821 212.409 158.796C213.703 159.958 215.098 161.197 216.625 162.536C220.243 165.712 222.921 169.342 225.511 172.85C227.823 175.981 230.203 179.212 233.279 182.178C237.052 185.819 240.616 187.434 244.057 188.995C248.639 191.075 252.976 193.045 256.905 199.795L257.513 200.857C262.46 209.4 267.451 217.312 270.527 217.312C271.025 217.312 271.445 217.124 271.799 216.737C272.906 215.52 273.205 212.3 272.718 206.888C272.43 203.712 270.14 200.88 267.915 198.135C265.525 195.181 263.268 192.381 263.4 189.293C263.566 185.597 265.802 183.772 268.17 181.846C269.907 180.441 271.7 178.98 272.751 176.712C275.274 171.278 275.883 166.42 276.48 161.717C277.299 155.166 278.074 148.991 283.939 141.998C294.418 129.482 309.125 120.032 325.347 115.373C330.748 113.824 335.749 113.071 340.629 113.071C357.206 113.071 369.091 122.09 381.684 131.629C383.112 132.713 384.55 133.798 386 134.882V133.92C384.705 132.946 383.421 131.983 382.149 131.02C369.456 121.393 357.461 112.308 340.629 112.308C335.672 112.308 330.604 113.071 325.126 114.643C308.76 119.335 293.92 128.874 283.33 141.511C277.321 148.682 276.536 154.967 275.695 161.629C275.108 166.276 274.511 171.079 272.032 176.391C271.058 178.493 269.332 179.887 267.672 181.249C265.271 183.196 262.792 185.221 262.615 189.271C262.471 192.646 264.928 195.69 267.296 198.633C269.442 201.289 271.656 204.033 271.921 206.966C272.497 213.34 271.855 215.52 271.202 216.217C271.003 216.438 270.781 216.538 270.505 216.538C267.462 216.538 260.944 205.273 258.166 200.47L257.547 199.408C253.496 192.447 249.048 190.433 244.356 188.286C240.97 186.748 237.473 185.155 233.799 181.614C230.778 178.703 228.41 175.494 226.119 172.385C223.508 168.844 220.808 165.181 217.123 161.95C215.596 160.611 214.201 159.371 212.907 158.209C202.737 149.135 198.532 145.384 183.139 141.787C176.19 140.161 174.065 136.664 171.83 132.957C169.982 129.914 168.079 126.771 163.486 124.403C161.561 123.407 159.458 122.931 157.035 122.931C154.578 122.931 152.066 123.429 149.643 123.905C147.264 124.381 144.796 124.857 142.428 124.857C139.097 124.857 136.408 123.894 133.951 121.836C132.037 120.22 131.141 117.354 130.288 114.576C129.602 112.352 128.883 110.05 127.633 108.346C126.537 106.852 124.667 105.901 122.863 104.993C120.716 103.909 118.68 102.88 117.917 101.043C116.168 96.8267 116.224 93.2635 118.094 90.4638C122.553 83.791 136.109 82.3856 146.699 82.3856C152.487 82.3856 157.168 82.8172 158.916 83.0053C162.468 83.3816 166.85 84.2668 171.487 85.1853C179.421 86.7788 188.418 88.5715 196.496 88.5715C203.478 88.5715 208.757 87.2325 212.641 84.4882C222.324 77.6384 219.546 67.3139 216.857 57.3324C213.991 46.6649 211.025 35.6321 222.954 28.4393C224.382 27.5761 226.296 27.1335 228.631 27.1335C235.769 27.1335 245.817 31.0287 255.533 34.8022C263.998 38.0888 271.988 41.1872 277.189 41.3089C277.941 41.3311 278.682 41.3311 279.435 41.3311C279.435 41.3311 279.435 41.3311 279.446 41.3311C290.623 41.3311 301.921 39.4056 312.854 37.5355C323.765 35.6764 335.041 33.7509 346.174 33.7509C353.964 33.7509 361.002 34.6805 367.675 36.5838C373.849 38.3433 379.936 40.6782 385.956 43.334V42.493C380.013 39.8704 373.993 37.5797 367.885 35.8424C361.135 33.9169 354.03 32.9763 346.174 32.9763C334.975 32.9763 323.654 34.9018 312.721 36.7719C301.821 38.631 290.556 40.5565 279.446 40.5565C278.694 40.5786 277.963 40.5454 277.211 40.5343C272.143 40.4126 264.219 37.3363 255.82 34.0829C246.038 30.2873 235.924 26.3589 228.642 26.3589C226.119 26.3589 224.139 26.8237 222.556 27.7753C210.129 35.278 213.172 46.5874 216.116 57.5316C218.871 67.7565 221.461 77.3728 212.221 83.9017Z" fill="white"/>
<path opacity="0.6" d="M118.104 55.6398C120.472 55.6398 123.216 55.3521 127.289 54.666C137.613 52.9397 147.86 52.1319 159.546 52.1319C162.478 52.1319 165.488 52.1761 168.764 52.2868C169.904 52.32 170.888 52.3421 171.785 52.3421C177.196 52.3421 180.35 51.6892 182.674 50.0736C185.451 48.1481 187.111 44.7841 188.196 38.7974C190.696 25.0757 196.196 12.7483 205.503 0.0224609H205.093C195.853 12.7151 190.365 25.0314 187.875 38.7421C186.801 44.6292 185.186 47.9379 182.486 49.797C180.217 51.3683 177.119 51.9991 171.785 51.9991C170.888 51.9991 169.904 51.977 168.775 51.9438C165.499 51.8442 162.489 51.7888 159.546 51.7888C147.849 51.7888 137.58 52.5967 127.233 54.334C123.183 55.009 120.45 55.3078 118.104 55.3078C111.431 55.3078 106.651 53.0725 104.98 42.1615C103.386 31.7374 104.803 20.6936 106.264 13.2684C107.204 8.47682 108.521 4.07259 110.159 0.0224609H109.816C108.178 4.05046 106.883 8.42149 105.943 13.213C104.471 20.6604 103.054 31.7485 104.659 42.2168C106.109 51.7556 110.004 55.6398 118.104 55.6398Z" fill="white"/>
<path opacity="0.6" d="M122.664 47.3293C123.705 47.3293 124.822 47.2297 126.006 47.0305C134.804 45.5587 144.21 44.6845 153.981 44.4521C156.26 44.3968 158.452 44.4521 160.543 44.5075C161.948 44.5407 163.276 44.5739 164.571 44.5739C168.555 44.5739 172.671 44.264 175.847 42.0398C178.481 40.1918 180.362 37.1154 181.59 32.6559C184.921 20.5387 189.691 9.8158 196.109 0.0224609H195.71C189.337 9.79367 184.589 20.4833 181.269 32.5673C180.063 36.9494 178.226 39.9594 175.659 41.7631C172.55 43.9431 168.488 44.2419 164.571 44.2419C163.276 44.2419 161.959 44.2087 160.554 44.1755C158.463 44.1202 156.26 44.0648 153.981 44.1202C144.199 44.3636 134.759 45.2267 125.951 46.7096C120.894 47.5617 117.131 46.5436 114.785 43.6886C109.441 37.1929 112.318 22.608 113.867 14.7733C114.951 9.2957 116.556 4.40457 118.692 0.0224609H118.315C116.202 4.3935 114.608 9.2625 113.535 14.7069C111.975 22.5969 109.086 37.2703 114.52 43.8878C116.401 46.1674 119.145 47.3293 122.664 47.3293Z" fill="white"/>
</g>
</svg>
