<svg width="203" height="54" viewBox="0 0 203 54" fill="none" xmlns="http://www.w3.org/2000/svg">
<g clip-path="url(#clip0_2494_33828)">
<path d="M47.5101 32.1021C50.2215 32.1021 51.8797 35.1437 50.3462 37.3816C49.7041 38.3192 48.9674 39.2107 48.136 40.0421L40.0413 48.1368C32.778 55.4 20.9997 55.4 13.7365 48.1368L5.44551 39.8458C-1.81777 32.5825 -1.81777 20.8042 5.44551 13.5409L13.5402 5.44624C20.8034 -1.81704 32.5817 -1.81704 39.845 5.44624L48.136 13.7372C48.9443 14.5455 49.6626 15.4093 50.2884 16.3169C51.7988 18.5016 50.1822 21.4855 47.5263 21.4855C46.6025 21.4855 45.7226 21.1021 45.0944 20.4254L35.076 9.65871C30.5263 5.10905 23.1522 5.10905 18.6002 9.65871L9.6626 18.6033C5.11294 23.1552 5.11294 30.5317 9.6626 35.079L18.5078 43.9243C23.0575 48.4739 30.4316 48.4739 34.9836 43.9243L45.0252 33.1806C45.6695 32.4924 46.5702 32.1021 47.5101 32.1021Z" fill="#5B84FA"/>
<path d="M36.9522 31.3742L31.3725 36.9538C28.8414 39.485 24.7398 39.485 22.2086 36.9538L16.6289 31.3742C14.0977 28.843 14.0977 24.7414 16.6289 22.2102L22.2086 16.6305C24.7398 14.0994 28.8414 14.0994 31.3725 16.6305L36.9522 22.2102C39.4834 24.7437 39.4834 28.843 36.9522 31.3742Z" fill="#A9EEF5"/>
<path d="M72.4228 19.9237C72.7831 20.1038 72.9955 20.3902 73.0579 20.7782C73.1202 21.1662 73.0186 21.5218 72.7553 21.8405C72.5752 22.0899 72.3419 22.2285 72.0579 22.2562C71.7738 22.2839 71.4851 22.2285 71.1941 22.0899C70.8616 21.9375 70.5105 21.8197 70.141 21.7366C69.7738 21.6535 69.3881 21.6119 68.984 21.6119C68.2334 21.6119 67.5637 21.7297 66.9724 21.9652C66.3812 22.2008 65.8777 22.538 65.462 22.9768C65.0463 23.4156 64.7299 23.9329 64.5128 24.5287C64.2981 25.1269 64.1895 25.7851 64.1895 26.508C64.1895 27.3555 64.3119 28.0923 64.5544 28.7158C64.7969 29.3417 65.1341 29.8613 65.566 30.2793C65.9955 30.695 66.5036 31.0045 67.0879 31.2054C67.6722 31.4063 68.3027 31.508 68.984 31.508C69.3581 31.508 69.7346 31.4733 70.1087 31.404C70.4828 31.3348 70.8454 31.21 71.1918 31.0299C71.4828 30.8913 71.7715 30.8428 72.0556 30.8844C72.3396 30.926 72.5798 31.0715 72.7738 31.3209C73.051 31.6673 73.1526 32.0253 73.0764 32.3948C73.0001 32.762 72.7877 33.0299 72.4413 33.1962C72.0787 33.3763 71.7092 33.5264 71.3258 33.6442C70.9447 33.762 70.559 33.8521 70.1687 33.9144C69.7807 33.9768 69.3835 34.0091 68.9817 34.0091C67.9817 34.0091 67.0325 33.8498 66.1364 33.5311C65.2403 33.2124 64.4413 32.7389 63.7415 32.1154C63.0394 31.4895 62.4874 30.7089 62.0856 29.7712C61.6814 28.8336 61.4805 27.7458 61.4805 26.5103C61.4805 25.441 61.6653 24.4548 62.0325 23.5518C62.3997 22.6488 62.9216 21.8682 63.596 21.2077C64.2703 20.5472 65.0648 20.0345 65.9817 19.665C66.8985 19.2978 67.8985 19.113 68.9817 19.113C69.5937 19.113 70.1895 19.1823 70.7738 19.3209C71.3604 19.4571 71.9078 19.6604 72.4228 19.9237Z" fill="white"/>
<path d="M85.7783 28.2379C85.7783 29.3765 85.5242 30.3811 85.0184 31.2495C84.5104 32.1178 83.8314 32.7945 82.9769 33.2818C82.1224 33.7691 81.1662 34.0116 80.1108 34.0116C79.0554 34.0116 78.0993 33.7691 77.2448 33.2818C76.3903 32.7968 75.709 32.1178 75.2032 31.2495C74.6951 30.3811 74.4434 29.3788 74.4434 28.2379C74.4434 27.0994 74.6974 26.0947 75.2032 25.2264C75.7113 24.358 76.3903 23.6767 77.2448 23.1848C78.0993 22.6929 79.0531 22.4458 80.1108 22.4458C81.1662 22.4458 82.1224 22.6929 82.9769 23.1848C83.8314 23.679 84.5127 24.358 85.0184 25.2264C85.5242 26.0947 85.7783 27.0994 85.7783 28.2379ZM83.2771 28.2379C83.2771 27.5289 83.1339 26.9146 82.8498 26.395C82.5658 25.873 82.1824 25.4666 81.7044 25.1756C81.224 24.8846 80.6928 24.7368 80.1108 24.7368C79.5288 24.7368 78.9953 24.8823 78.5173 25.1756C78.0392 25.4666 77.6559 25.873 77.3718 26.395C77.0877 26.9169 76.9445 27.5312 76.9445 28.2379C76.9445 28.9331 77.0877 29.5405 77.3718 30.0601C77.6559 30.582 78.0392 30.9885 78.5173 31.2795C78.9977 31.5705 79.5288 31.7183 80.1108 31.7183C80.6928 31.7183 81.2263 31.5728 81.7044 31.2795C82.1824 30.9885 82.5658 30.582 82.8498 30.0601C83.1362 29.5405 83.2771 28.9308 83.2771 28.2379Z" fill="white"/>
<path d="M96.883 18.3811C97.2432 18.3811 97.5435 18.4989 97.779 18.7344C98.0146 18.97 98.1324 19.2772 98.1324 19.6513V32.5289C98.1324 32.8892 98.0146 33.1917 97.779 33.4342C97.5435 33.6767 97.2432 33.7991 96.883 33.7991C96.5204 33.7991 96.2225 33.6767 95.9869 33.4342C95.7513 33.1917 95.6335 32.8892 95.6335 32.5289V31.5081L96.0908 31.6952C96.0908 31.8753 95.9938 32.0947 95.7998 32.3511C95.6058 32.6074 95.3426 32.8614 95.0077 33.1109C94.6751 33.3603 94.2825 33.5728 93.8299 33.746C93.3795 33.9192 92.8876 34.0069 92.361 34.0069C91.4026 34.0069 90.5342 33.7598 89.7559 33.2679C88.9777 32.776 88.3633 32.0947 87.913 31.2263C87.4603 30.358 87.2363 29.3626 87.2363 28.2356C87.2363 27.097 87.4626 26.0924 87.913 25.224C88.3633 24.3557 88.973 23.6744 89.7352 23.1825C90.4996 22.6906 91.3472 22.4434 92.2779 22.4434C92.8737 22.4434 93.4234 22.5335 93.9245 22.7136C94.4257 22.8938 94.8576 23.1224 95.2271 23.4019C95.5943 23.679 95.8807 23.9608 96.0816 24.2448C96.2825 24.5289 96.3841 24.7691 96.3841 24.9631L95.6335 25.2333V19.6536C95.6335 19.2933 95.7513 18.9908 95.9869 18.7483C96.2225 18.5035 96.5204 18.3811 96.883 18.3811ZM92.6728 31.716C93.2848 31.716 93.8183 31.5635 94.2779 31.2587C94.7352 30.9538 95.0931 30.5358 95.3518 30.0093C95.6081 29.4827 95.7375 28.8915 95.7375 28.2379C95.7375 27.5705 95.6081 26.9746 95.3518 26.4457C95.0954 25.9192 94.7375 25.5012 94.2779 25.1963C93.8206 24.8915 93.2848 24.7391 92.6728 24.7391C92.0747 24.7391 91.5481 24.8915 91.0885 25.1963C90.6312 25.5012 90.2733 25.9192 90.0146 26.4457C89.7583 26.9746 89.6289 27.5705 89.6289 28.2379C89.6289 28.8915 89.7583 29.4804 90.0146 30.0093C90.271 30.5381 90.6289 30.9538 91.0885 31.2587C91.5481 31.5635 92.077 31.716 92.6728 31.716Z" fill="white"/>
<path d="M105.989 34.0094C104.808 34.0094 103.783 33.7623 102.915 33.2703C102.046 32.7784 101.379 32.1064 100.915 31.2588C100.448 30.4112 100.217 29.4528 100.217 28.3835C100.217 27.1341 100.471 26.0671 100.977 25.1849C101.485 24.3027 102.148 23.626 102.968 23.1526C103.788 22.6814 104.656 22.4436 105.573 22.4436C106.282 22.4436 106.952 22.5891 107.584 22.88C108.217 23.171 108.776 23.5706 109.261 24.0787C109.746 24.5867 110.132 25.1733 110.418 25.8385C110.702 26.5059 110.845 27.2126 110.845 27.9632C110.831 28.2957 110.7 28.5683 110.45 28.7761C110.201 28.984 109.908 29.0879 109.575 29.0879H101.617L100.991 27.0048H108.637L108.18 27.4205V26.8569C108.152 26.4551 108.009 26.0925 107.753 25.7738C107.497 25.4551 107.176 25.2011 106.795 25.014C106.413 24.8269 106.007 24.7322 105.575 24.7322C105.159 24.7322 104.769 24.7877 104.409 24.8985C104.049 25.0094 103.734 25.1964 103.471 25.462C103.208 25.7253 102.998 26.081 102.845 26.5244C102.693 26.9701 102.617 27.5313 102.617 28.2126C102.617 28.9632 102.774 29.5983 103.085 30.1202C103.397 30.6422 103.801 31.0371 104.293 31.3073C104.785 31.5775 105.312 31.7138 105.866 31.7138C106.381 31.7138 106.79 31.6722 107.095 31.589C107.4 31.5059 107.647 31.4043 107.834 31.2865C108.021 31.1687 108.192 31.0671 108.344 30.984C108.594 30.8593 108.829 30.7969 109.053 30.7969C109.358 30.7969 109.612 30.9008 109.813 31.1087C110.014 31.3165 110.116 31.559 110.116 31.8385C110.116 32.2126 109.922 32.5544 109.531 32.8593C109.171 33.1641 108.663 33.432 108.009 33.6606C107.358 33.8939 106.684 34.0094 105.989 34.0094Z" fill="white"/>
<path d="M121.948 18.3811C122.308 18.3811 122.609 18.4989 122.844 18.7344C123.08 18.97 123.198 19.2772 123.198 19.6513V32.5289C123.198 32.8892 123.08 33.1917 122.844 33.4342C122.609 33.6767 122.308 33.7991 121.948 33.7991C121.586 33.7991 121.288 33.6767 121.052 33.4342C120.816 33.1917 120.699 32.8892 120.699 32.5289V31.5081L121.156 31.6952C121.156 31.8753 121.059 32.0947 120.865 32.3511C120.671 32.6074 120.408 32.8614 120.073 33.1109C119.74 33.3603 119.348 33.5728 118.895 33.746C118.445 33.9192 117.953 34.0069 117.426 34.0069C116.468 34.0069 115.599 33.7598 114.821 33.2679C114.043 32.776 113.429 32.0947 112.978 31.2263C112.526 30.358 112.301 29.3626 112.301 28.2356C112.301 27.097 112.528 26.0924 112.978 25.224C113.429 24.3557 114.038 23.6744 114.8 23.1825C115.565 22.6906 116.412 22.4434 117.343 22.4434C117.939 22.4434 118.489 22.5335 118.99 22.7136C119.491 22.8938 119.923 23.1224 120.292 23.4019C120.659 23.679 120.946 23.9608 121.147 24.2448C121.348 24.5289 121.449 24.7691 121.449 24.9631L120.699 25.2333V19.6536C120.699 19.2933 120.816 18.9908 121.052 18.7483C121.288 18.5035 121.586 18.3811 121.948 18.3811ZM117.74 31.716C118.352 31.716 118.886 31.5635 119.345 31.2587C119.803 30.9538 120.161 30.5358 120.419 30.0093C120.676 29.4827 120.805 28.8915 120.805 28.2379C120.805 27.5705 120.676 26.9746 120.419 26.4457C120.163 25.9192 119.805 25.5012 119.345 25.1963C118.888 24.8915 118.352 24.7391 117.74 24.7391C117.142 24.7391 116.616 24.8915 116.156 25.1963C115.699 25.5012 115.341 25.9192 115.082 26.4457C114.826 26.9746 114.696 27.5705 114.696 28.2379C114.696 28.8915 114.826 29.4804 115.082 30.0093C115.338 30.5381 115.696 30.9538 116.156 31.2587C116.613 31.5635 117.142 31.716 117.74 31.716Z" fill="white"/>
<path d="M125.886 20.4019C125.72 20.4019 125.574 20.3465 125.447 20.2356C125.322 20.1248 125.26 19.9793 125.26 19.7968C125.26 19.6305 125.322 19.492 125.447 19.3811C125.572 19.2702 125.717 19.2148 125.886 19.2148H135.803C135.969 19.2148 136.114 19.2702 136.241 19.3811C136.366 19.492 136.429 19.6375 136.429 19.8176C136.429 19.9977 136.366 20.1409 136.241 20.2448C136.117 20.3488 135.971 20.4019 135.803 20.4019H125.886ZM130.844 33.8014C130.65 33.8014 130.493 33.7391 130.375 33.6144C130.258 33.4896 130.198 33.3442 130.198 33.1779V19.903H131.489V33.1756C131.489 33.3418 131.426 33.4873 131.302 33.612C131.179 33.7368 131.024 33.8014 130.844 33.8014Z" fill="#F5FAFF"/>
<path d="M143.639 23.0693C144.514 23.0693 145.223 23.2564 145.763 23.6328C146.306 24.007 146.703 24.515 146.962 25.1548C147.218 25.7945 147.348 26.5012 147.348 27.2795V33.1755C147.348 33.3418 147.285 33.4873 147.161 33.612C147.036 33.7367 146.891 33.7991 146.722 33.7991C146.528 33.7991 146.376 33.7367 146.265 33.612C146.154 33.4873 146.098 33.3418 146.098 33.1755V27.2795C146.098 26.709 146.011 26.1963 145.837 25.7367C145.664 25.2795 145.382 24.9146 144.994 24.6421C144.606 24.3718 144.085 24.2356 143.431 24.2356C142.847 24.2356 142.295 24.3718 141.775 24.6421C141.253 24.9123 140.835 25.2772 140.514 25.7367C140.195 26.194 140.036 26.709 140.036 27.2795V33.1755C140.036 33.3418 139.974 33.4873 139.849 33.612C139.724 33.7367 139.579 33.7991 139.41 33.7991C139.216 33.7991 139.064 33.7367 138.953 33.612C138.842 33.4873 138.787 33.3418 138.787 33.1755V19.0069C138.787 18.8407 138.847 18.6952 138.964 18.5681C139.082 18.4434 139.232 18.3811 139.412 18.3811C139.593 18.3811 139.743 18.4434 139.86 18.5681C139.978 18.6929 140.038 18.8384 140.038 19.0069V25.7575L139.558 26.4873C139.586 26.0578 139.722 25.6374 139.964 25.2264C140.207 24.8176 140.523 24.4481 140.911 24.1224C141.299 23.7968 141.731 23.5381 142.202 23.3511C142.673 23.164 143.151 23.0693 143.639 23.0693Z" fill="#F5FAFF"/>
<path d="M155.349 34.0093C154.279 34.0093 153.335 33.7807 152.515 33.3211C151.695 32.8638 151.055 32.2241 150.598 31.4042C150.141 30.5843 149.91 29.6259 149.91 28.5289C149.91 27.3488 150.143 26.3419 150.607 25.5081C151.072 24.6744 151.677 24.0324 152.42 23.5797C153.164 23.1294 153.951 22.9031 154.785 22.9031C155.395 22.9031 155.991 23.0116 156.566 23.2264C157.143 23.4412 157.654 23.7622 158.097 24.1848C158.54 24.6098 158.903 25.1271 159.18 25.7368C159.457 26.3488 159.603 27.0578 159.619 27.8615C159.619 28.0278 159.557 28.171 159.432 28.2887C159.307 28.4065 159.162 28.4666 158.995 28.4666H150.64L150.39 27.3419H158.6L158.33 27.5913V27.1756C158.261 26.522 158.046 25.9677 157.684 25.5081C157.323 25.0509 156.889 24.7021 156.381 24.4666C155.873 24.231 155.342 24.1132 154.788 24.1132C154.369 24.1132 153.945 24.1964 153.506 24.3626C153.067 24.5289 152.672 24.7899 152.319 25.1432C151.965 25.4966 151.677 25.9492 151.455 26.4966C151.233 27.0462 151.122 27.6952 151.122 28.4458C151.122 29.2656 151.289 30.0093 151.621 30.6744C151.954 31.3419 152.434 31.8684 153.06 32.2587C153.686 32.6467 154.441 32.843 155.33 32.843C155.801 32.843 156.233 32.7737 156.621 32.6352C157.009 32.4966 157.353 32.3118 157.654 32.0832C157.951 31.8546 158.199 31.6144 158.393 31.3649C158.545 31.2402 158.691 31.1779 158.829 31.1779C158.982 31.1779 159.111 31.2333 159.215 31.3442C159.319 31.455 159.372 31.5797 159.372 31.7183C159.372 31.8846 159.303 32.0301 159.164 32.1548C158.746 32.6559 158.206 33.0901 157.538 33.4573C156.871 33.8245 156.141 34.0093 155.349 34.0093Z" fill="#F5FAFF"/>
<path d="M166.996 23.0693C167.857 23.0693 168.594 23.2956 169.203 23.746C169.815 24.1963 170.231 24.8684 170.453 25.7575L170.162 25.8407L170.286 25.4665C170.467 25.0508 170.769 24.6582 171.192 24.2887C171.614 23.9215 172.097 23.6259 172.64 23.4042C173.183 23.1825 173.73 23.0716 174.286 23.0716C175.162 23.0716 175.866 23.2587 176.402 23.6351C176.938 24.0093 177.326 24.5127 177.568 25.1455C177.811 25.7783 177.933 26.4896 177.933 27.2818V33.1779C177.933 33.3441 177.873 33.4896 177.755 33.6143C177.638 33.7391 177.487 33.8014 177.307 33.8014C177.127 33.8014 176.977 33.7391 176.859 33.6143C176.741 33.4896 176.681 33.3441 176.681 33.1779V27.3441C176.681 26.7737 176.591 26.2541 176.411 25.7806C176.231 25.3072 175.947 24.9331 175.557 24.6559C175.169 24.3788 174.647 24.2402 173.993 24.2402C173.423 24.2402 172.878 24.3788 172.358 24.6559C171.838 24.9331 171.414 25.3095 171.088 25.7806C170.762 26.2518 170.598 26.7737 170.598 27.3441V33.1779C170.598 33.3441 170.538 33.4896 170.42 33.6143C170.303 33.7391 170.153 33.8014 169.972 33.8014C169.792 33.8014 169.642 33.7391 169.524 33.6143C169.407 33.4896 169.347 33.3441 169.347 33.1779V27.2818C169.347 26.7113 169.263 26.1986 169.097 25.7391C168.931 25.2818 168.658 24.9169 168.284 24.6444C167.91 24.3742 167.402 24.2379 166.762 24.2379C166.192 24.2379 165.654 24.3742 165.148 24.6444C164.64 24.9146 164.231 25.2795 163.919 25.7391C163.608 26.1963 163.45 26.7113 163.45 27.2818V33.1779C163.45 33.3441 163.388 33.4896 163.263 33.6143C163.139 33.7391 162.993 33.8014 162.825 33.8014C162.631 33.8014 162.478 33.7391 162.367 33.6143C162.256 33.4896 162.201 33.3441 162.201 33.1779V23.843C162.201 23.6767 162.259 23.5312 162.379 23.4065C162.497 23.2818 162.647 23.2194 162.827 23.2194C163.007 23.2194 163.157 23.2818 163.275 23.4065C163.393 23.5312 163.453 23.6767 163.453 23.843V25.7806L162.889 26.552C162.931 26.1363 163.067 25.7183 163.296 25.3026C163.524 24.8869 163.827 24.5104 164.201 24.1779C164.575 23.8453 165.002 23.5774 165.483 23.3765C165.965 23.1709 166.469 23.0693 166.996 23.0693Z" fill="#F5FAFF"/>
<path d="M185.934 34.0093C184.865 34.0093 183.921 33.7807 183.101 33.3211C182.281 32.8638 181.641 32.2241 181.184 31.4042C180.727 30.5843 180.496 29.6259 180.496 28.5289C180.496 27.3488 180.729 26.3419 181.193 25.5081C181.657 24.6744 182.262 24.0324 183.006 23.5797C183.75 23.1294 184.537 22.9031 185.371 22.9031C185.983 22.9031 186.576 23.0116 187.151 23.2264C187.729 23.4412 188.239 23.7622 188.683 24.1848C189.126 24.6098 189.489 25.1271 189.766 25.7368C190.043 26.3488 190.188 27.0578 190.202 27.8615C190.202 28.0278 190.14 28.171 190.015 28.2887C189.891 28.4065 189.745 28.4666 189.576 28.4666H181.221L180.971 27.3419H189.182L188.911 27.5913V27.1756C188.842 26.522 188.627 25.9677 188.265 25.5081C187.904 25.0509 187.47 24.7021 186.962 24.4666C186.454 24.231 185.923 24.1132 185.369 24.1132C184.953 24.1132 184.526 24.1964 184.087 24.3626C183.65 24.5289 183.253 24.7899 182.9 25.1432C182.546 25.4966 182.258 25.9492 182.036 26.4966C181.814 27.0462 181.703 27.6952 181.703 28.4458C181.703 29.2656 181.87 30.0093 182.205 30.6744C182.537 31.3419 183.018 31.8684 183.643 32.2587C184.269 32.6467 185.024 32.843 185.914 32.843C186.385 32.843 186.817 32.7737 187.205 32.6352C187.593 32.4966 187.937 32.3118 188.237 32.0832C188.535 31.8546 188.782 31.6144 188.976 31.3649C189.128 31.2402 189.274 31.1779 189.415 31.1779C189.567 31.1779 189.697 31.2333 189.8 31.3442C189.904 31.455 189.958 31.5797 189.958 31.7183C189.958 31.8846 189.888 32.0301 189.75 32.1548C189.334 32.6559 188.791 33.0901 188.124 33.4573C187.456 33.8245 186.727 34.0093 185.934 34.0093Z" fill="#F5FAFF"/>
<path d="M192.187 32.1132C192.076 31.9469 192.023 31.783 192.03 31.6236C192.037 31.4642 192.125 31.3349 192.291 31.2379C192.402 31.1409 192.531 31.0994 192.677 31.1132C192.822 31.1271 192.958 31.1964 193.083 31.3211C193.457 31.8084 193.912 32.201 194.448 32.4989C194.982 32.7968 195.619 32.9469 196.356 32.9469C196.744 32.9469 197.129 32.88 197.513 32.7483C197.894 32.6167 198.21 32.4158 198.46 32.1432C198.709 31.8707 198.834 31.5289 198.834 31.1109C198.834 30.6813 198.709 30.3326 198.46 30.0693C198.21 29.8061 197.887 29.5982 197.492 29.4435C197.095 29.291 196.677 29.1594 196.231 29.0485C195.76 28.9238 195.3 28.7807 194.857 28.6213C194.411 28.4619 194.021 28.261 193.679 28.0162C193.34 27.7737 193.065 27.4781 192.857 27.1317C192.649 26.7853 192.545 26.3603 192.545 25.8615C192.545 25.2772 192.704 24.7645 193.023 24.3188C193.342 23.8753 193.776 23.5266 194.326 23.2772C194.875 23.0278 195.497 22.9031 196.192 22.9031C196.538 22.9031 196.915 22.9492 197.316 23.0393C197.718 23.1294 198.116 23.2795 198.504 23.4873C198.892 23.6952 199.24 23.9816 199.545 24.3419C199.67 24.4666 199.732 24.6098 199.732 24.7691C199.732 24.9285 199.663 25.0716 199.524 25.1964C199.413 25.2795 199.284 25.3211 199.139 25.3211C198.993 25.3211 198.871 25.2656 198.774 25.1548C198.441 24.7807 198.044 24.4943 197.587 24.3003C197.129 24.1063 196.635 24.0093 196.106 24.0093C195.704 24.0093 195.326 24.0763 194.97 24.2079C194.617 24.3395 194.321 24.5382 194.083 24.8014C193.848 25.0647 193.73 25.4134 193.73 25.843C193.758 26.2472 193.901 26.5728 194.157 26.8222C194.413 27.0716 194.755 27.2795 195.178 27.4481C195.603 27.6144 196.076 27.7668 196.605 27.9054C197.051 28.0162 197.476 28.1479 197.887 28.3003C198.296 28.4527 198.658 28.6444 198.97 28.873C199.282 29.1017 199.534 29.3903 199.721 29.7368C199.908 30.0832 200.002 30.522 200.002 31.0485C200.002 31.6606 199.832 32.1871 199.492 32.6328C199.153 33.0786 198.698 33.4181 198.127 33.6536C197.557 33.8892 196.926 34.007 196.231 34.007C195.48 34.007 194.755 33.8615 194.053 33.5705C193.349 33.2795 192.728 32.7945 192.187 32.1132Z" fill="#F5FAFF"/>
</g>
<defs>
<clipPath id="clip0_2494_33828">
<rect width="203" height="54" fill="white"/>
</clipPath>
</defs>
</svg>
