<svg width="23" height="23" viewBox="0 0 23 23" fill="none" xmlns="http://www.w3.org/2000/svg">
<g clip-path="url(#clip0)">
<path d="M20.5526 10.3887C20.5452 9.72575 20.5428 9.0579 20.5403 8.39249H18.5564C18.549 9.05544 18.5441 9.72084 18.5392 10.3887C17.8713 10.3912 17.2084 10.3961 16.5454 10.4034V12.3898C17.2084 12.3972 17.8763 12.4021 18.5392 12.4095C18.5466 13.0724 18.5466 13.7378 18.5515 14.4008H20.5379C20.5403 13.7378 20.5452 13.0724 20.5501 12.4045C21.218 12.3972 21.8809 12.3947 22.5439 12.3874V10.401C21.8834 10.3961 21.2155 10.3961 20.5526 10.3887ZM7.5392 10.3985C7.53674 11.1916 7.5392 11.9871 7.54165 12.7802C8.87246 12.8244 10.2057 12.8048 11.5365 12.8244C10.9497 15.7782 6.93518 16.7358 4.8113 14.8059C2.62603 13.1141 2.72915 9.4041 5.00036 7.83267C6.58897 6.56571 8.84545 6.87754 10.4341 7.97508C11.0577 7.39807 11.6421 6.77932 12.2044 6.14093C10.8834 5.08758 9.26286 4.33624 7.5392 4.41482C3.93964 4.2945 0.632277 7.44718 0.573349 11.0492C0.342545 13.9932 2.27737 16.8782 5.00772 17.9193C7.72826 18.9677 11.2173 18.2532 12.9557 15.8077C14.1024 14.2633 14.3504 12.2744 14.2153 10.4059C11.9883 10.3887 9.76375 10.3912 7.5392 10.3985V10.3985Z" fill="white"/>
</g>
<defs>
<clipPath id="clip0">
<rect width="22" height="22" fill="white" transform="translate(0.527344 0.408203)"/>
</clipPath>
</defs>
</svg>
