<svg width="19" height="19" viewBox="0 0 19 19" fill="none" xmlns="http://www.w3.org/2000/svg">
<path d="M9.52828 5.28497C7.24814 5.28497 5.40796 7.12515 5.40796 9.40528C5.40796 11.6854 7.24814 13.5256 9.52828 13.5256C11.8084 13.5256 13.6486 11.6854 13.6486 9.40528C13.6486 7.12515 11.8084 5.28497 9.52828 5.28497ZM9.52828 12.0832C8.05372 12.0832 6.85038 10.8798 6.85038 9.40528C6.85038 7.93073 8.05372 6.72738 9.52828 6.72738C11.0028 6.72738 12.2062 7.93073 12.2062 9.40528C12.2062 10.8798 11.0028 12.0832 9.52828 12.0832ZM13.8173 4.15595C13.285 4.15595 12.8551 4.58587 12.8551 5.11823C12.8551 5.6506 13.285 6.08051 13.8173 6.08051C14.3497 6.08051 14.7796 5.65261 14.7796 5.11823C14.7798 4.99182 14.755 4.86662 14.7067 4.7498C14.6584 4.63298 14.5875 4.52683 14.4981 4.43745C14.4087 4.34806 14.3026 4.27718 14.1858 4.22888C14.069 4.18058 13.9438 4.1558 13.8173 4.15595V4.15595ZM17.56 9.40528C17.56 8.29636 17.57 7.19747 17.5077 6.09055C17.4455 4.80484 17.1522 3.66377 16.212 2.72359C15.2698 1.7814 14.1307 1.49011 12.845 1.42783C11.7361 1.36555 10.6372 1.3756 9.53029 1.3756C8.42136 1.3756 7.32247 1.36555 6.21555 1.42783C4.92984 1.49011 3.78877 1.78341 2.84859 2.72359C1.9064 3.66578 1.61511 4.80484 1.55283 6.09055C1.49055 7.19948 1.5006 8.29837 1.5006 9.40528C1.5006 10.5122 1.49055 11.6131 1.55283 12.72C1.61511 14.0057 1.90841 15.1468 2.84859 16.087C3.79078 17.0292 4.92984 17.3205 6.21555 17.3827C7.32448 17.445 8.42337 17.435 9.53029 17.435C10.6392 17.435 11.7381 17.445 12.845 17.3827C14.1307 17.3205 15.2718 17.0272 16.212 16.087C17.1542 15.1448 17.4455 14.0057 17.5077 12.72C17.572 11.6131 17.56 10.5142 17.56 9.40528V9.40528ZM15.7921 14.1423C15.6455 14.508 15.4687 14.7812 15.1854 15.0624C14.9022 15.3457 14.631 15.5225 14.2653 15.6691C13.2086 16.089 10.6995 15.9946 9.52828 15.9946C8.35707 15.9946 5.84591 16.089 4.78921 15.6711C4.42359 15.5245 4.15037 15.3477 3.86912 15.0644C3.58587 14.7812 3.40908 14.51 3.26243 14.1443C2.84457 13.0856 2.93899 10.5765 2.93899 9.40528C2.93899 8.23408 2.84457 5.72292 3.26243 4.66622C3.40908 4.3006 3.58587 4.02738 3.86912 3.74613C4.15238 3.46488 4.42359 3.28609 4.78921 3.13944C5.84591 2.72158 8.35707 2.816 9.52828 2.816C10.6995 2.816 13.2106 2.72158 14.2673 3.13944C14.633 3.28609 14.9062 3.46287 15.1874 3.74613C15.4707 4.02939 15.6475 4.3006 15.7941 4.66622C16.212 5.72292 16.1176 8.23408 16.1176 9.40528C16.1176 10.5765 16.212 13.0856 15.7921 14.1423Z" fill="white"/>
</svg>
