<svg width="17" height="15" viewBox="0 0 17 15" fill="none" xmlns="http://www.w3.org/2000/svg">
<path d="M16.8843 2.23134C16.2695 2.49652 15.6006 2.68737 14.9115 2.7617C15.6269 2.33668 16.1626 1.66522 16.4182 0.873306C15.7469 1.27266 15.0114 1.55269 14.2445 1.70098C13.924 1.35831 13.5363 1.08533 13.1057 0.899036C12.675 0.712743 12.2106 0.617136 11.7414 0.618172C9.84297 0.618172 8.31618 2.15701 8.31618 4.0454C8.31618 4.31058 8.34833 4.57576 8.40056 4.8309C5.55792 4.68224 3.02266 3.3242 1.33717 1.24496C1.03005 1.76952 0.869112 2.3668 0.871094 2.97465C0.871094 4.16393 1.47578 5.21259 2.39788 5.82933C1.85447 5.80793 1.32379 5.65857 0.848996 5.3934V5.43558C0.848996 7.10098 2.02623 8.48112 3.5952 8.79853C3.30061 8.87505 2.99756 8.9142 2.69319 8.91505C2.4702 8.91505 2.25926 8.89295 2.04632 8.86282C2.48025 10.2209 3.74386 11.2072 5.24855 11.2394C4.07132 12.1615 2.59676 12.7039 0.995647 12.7039C0.708371 12.7039 0.443192 12.6938 0.167969 12.6617C1.68672 13.636 3.48873 14.1985 5.42935 14.1985C11.7294 14.1985 15.1767 8.97933 15.1767 4.4492C15.1767 4.30054 15.1767 4.15188 15.1666 4.00322C15.8336 3.51505 16.4182 2.91036 16.8843 2.23134Z" fill="white"/>
</svg>
